<?xml version="1.0" standalone="no"?>
<!DOCTYPE svg PUBLIC "-//W3C//DTD SVG 1.1//EN" "http://www.w3.org/Graphics/SVG/1.1/DTD/svg11.dtd" >
<svg xmlns="http://www.w3.org/2000/svg">
<metadata></metadata>
<defs>
<font id="cinzel_decorativeblack" horiz-adv-x="1474" >
<font-face units-per-em="2048" ascent="1638" descent="-410" />
<missing-glyph horiz-adv-x="512" />
<glyph horiz-adv-x="2048" />
<glyph horiz-adv-x="2048" />
<glyph unicode="&#xd;" horiz-adv-x="681" />
<glyph unicode=" "  horiz-adv-x="512" />
<glyph unicode="&#x09;" horiz-adv-x="512" />
<glyph unicode="&#xa0;" horiz-adv-x="512" />
<glyph unicode="!" horiz-adv-x="604" d="M92 1438h420l-47 -695l-92 -272h-144l-92 272zM113 155.5q0 75.5 54 130t131 54.5t130 -54.5t53 -130t-53 -130t-130 -54.5t-131 54.5t-54 130z" />
<glyph unicode="&#x22;" horiz-adv-x="806" d="M61 1034q70 174 70 283q0 53 -10 117l270 28v-31.5t-12 -78t-42 -121t-93.5 -124.5t-147.5 -83zM418 1034q70 174 69 283q0 53 -10 117l268 28v-31.5t-11 -78t-41.5 -121t-93 -124.5t-146.5 -83z" />
<glyph unicode="#" horiz-adv-x="1228" d="M41 444v123h242l57 328h-209v123h231l72 416h127l-72 -416h283l72 416h127l-72 -416h219v-123h-241l-58 -328h209v-123h-231l-78 -444h-127l78 444h-283l-78 -444h-127l78 444h-219zM410 567h282l58 328h-283z" />
<glyph unicode="$" horiz-adv-x="1259" d="M72 201.5q0 52.5 8 101.5q23 121 76 189h18q-2 -12 -2 -27q0 -139 104.5 -256t290.5 -133l35 465l-246 114q-141 63 -204 179q-51 90 -52 198q0 221 150 336q125 94 332 94q35 0 90 -2l12 154l98 -2l-12 -158q86 -6 158 -12h159l-45 -334h-20q0 154 -150 219 q-49 20 -108 29l-33 -420l252 -117q238 -109 238 -348.5t-154 -360t-410 -137.5l-14 -182l-98 6l14 174q-166 2 -290 39t-179 94q-18 45 -18 97.5zM418 1172.5q0 -56.5 44 -95.5t138 -80l35 -18l29 381q-147 -10 -211 -88q-35 -43 -35 -99.5zM666 76q117 10 179 66.5t62 126 t-49 123t-160 106.5z" />
<glyph unicode="%" horiz-adv-x="1591" d="M41 1034q0 223 141 338q113 90 287 90h2h40t92 -14t85 -33q92 -53 170 -53q86 0 213 68q33 16 43 22l80 -35l-762 -1456l-92 39l709 1337q-76 -49 -154 -49t-152 27q33 -66 33 -124t-4 -91q-18 -170 -132 -265.5t-289 -95.5t-253 101q-57 76 -57 194zM319 966.5 q0 -145.5 52.5 -144.5t88.5 74t47 173t11 156q0 156 -57.5 155.5t-98.5 -129.5q-43 -139 -43 -284.5zM780 264q1 223 142 340q113 90 278.5 90t239 -88t73.5 -223q0 -207 -122.5 -309.5t-299 -102.5t-253.5 101q-57 76 -58 192zM1044 193q0 -139 56 -140q49 0 85 73t48 174 t12 157q0 156 -59 155q-43 0 -77 -73.5t-49.5 -180t-15.5 -165.5z" />
<glyph unicode="&#x26;" horiz-adv-x="1880" d="M51 438.5q0 79.5 29 144t78 109.5q94 86 219 121q-88 143 -88 260t48 192.5t130 116.5q160 80 373 80q145 0 269 -35.5t171 -109.5l-96 -334h-19q-4 377 -237 377q-92 0 -150.5 -57.5t-58.5 -156.5t84 -200.5t239.5 -234.5t409.5 -344q225 244 225 546q0 80 -22.5 184.5 t-117.5 242t-253 257.5l14 13q207 -141 324 -322q135 -213 135 -440q0 -317 -211 -559q16 -14 75.5 -66.5t97.5 -85.5t107.5 -89t117 -87t119 -72t132.5 -63q154 -55 299 -70l3 -22q-360 -141 -736 -23q-188 61 -344 185l-200 157q-176 -74 -371 -73q-201 0 -400 55 q-274 78 -362 256q-33 68 -33 147.5zM487 555q0 -342 275 -430q70 -23 157 -23t189 37l-356 281q-152 120 -248 229q-16 -53 -17 -94z" />
<glyph unicode="'" horiz-adv-x="450" d="M61 1034q70 174 70 283q0 53 -10 117l270 28v-31.5t-12 -78t-42 -121t-93.5 -124.5t-147.5 -83z" />
<glyph unicode="(" horiz-adv-x="978" d="M184 684q0 330 170 547q180 227 553 268l13 -16q-326 -156 -326 -758q0 -686 321 -911l-12 -19q-184 43 -324.5 133t-224.5 209q-170 238 -170 547z" />
<glyph unicode=")" horiz-adv-x="978" d="M61 1483l13 16q373 -41 551 -268q172 -217 172 -547q0 -309 -170 -547q-86 -119 -226.5 -209t-322.5 -133l-12 19q322 225 321 911q0 602 -326 758z" />
<glyph unicode="*" horiz-adv-x="798" d="M72 1237l6 111l61 94l150 -76l102 -109l-72 132l-28 165l108 29l109 -29l-25 -165l-73 -134l102 111l150 78l61 -94l6 -113l-168 -27l-147 29l137 -63l121 -119l-72 -86l-104 -41l-78 149l-19 150l-16 -150l-76 -149l-104 41l-72 86l119 119l135 63l-147 -29z" />
<glyph unicode="+" horiz-adv-x="985" d="M82 567v133h344v347h133v-347h346v-133h-346v-344h-133v344h-344z" />
<glyph unicode="," horiz-adv-x="532" d="M72 156q0 100 67 149q45 35 88 35q150 0 203 -119q31 -76 31 -149.5t-33 -141.5q-70 -143 -197 -186q-43 -14 -77.5 -14t-61.5 6l-8 26q61 27 84 88q8 25 8 44q0 66 -52 126t-52 136z" />
<glyph unicode="-" horiz-adv-x="778" d="M61 598l21 82h614l21 -82l-21 -84h-614z" />
<glyph unicode="." horiz-adv-x="512" d="M72 155.5q0 75.5 54 130t130 54.5t130 -54.5t54 -130t-54 -130t-130 -54.5t-130 54.5t-54 130z" />
<glyph unicode="/" horiz-adv-x="899" d="M20 29l740 1452l121 -56l-740 -1454z" />
<glyph unicode="0" horiz-adv-x="1433" d="M82 614q0 303 168 473t467 170t467 -169.5t168 -473t-168 -473.5t-467 -170q-199 0 -341.5 76t-218 221.5t-75.5 345.5zM512 657q0 -211 25 -333q49 -250 180 -250q96 0 150.5 143t54.5 397t-54.5 397.5t-150.5 143.5t-150.5 -143.5t-54.5 -354.5z" />
<glyph unicode="1" horiz-adv-x="831" d="M51 0v20h43q47 0 80 33t33 78v969q0 61 -55 94q-27 14 -58 14h-43v21h731l-2 -21h-41q-66 0 -98 -53q-14 -25 -16 -55v-971q0 -61 57 -94q27 -14 57 -15h41l2 -20h-731z" />
<glyph unicode="2" horiz-adv-x="1347" d="M61 1153q86 70 233.5 108.5t308.5 38.5t293 -44t210 -130t78 -202q0 -92 -64 -193q-35 -57 -157 -156q-76 -61 -220.5 -134.5t-154.5 -80.5h389q90 0 158.5 48.5t121.5 150.5h21l-139 -559h-1065v18q68 80 178 199t185 202t151 181q156 201 155 371q0 113 -66.5 173 t-164.5 60q-152 0 -222.5 -107.5t-70.5 -293.5h-20z" />
<glyph unicode="3" horiz-adv-x="1232" d="M61 1108q80 66 214 105.5t296 39.5q246 0 383.5 -92t137.5 -260q0 -190 -162 -268q-53 -27 -115 -29q190 -37 283 -184q53 -86 53 -215q0 -174 -104 -305q-197 -248 -592 -248q-201 0 -375 78l4 20h22q154 0 292.5 56.5t225.5 171t87 260.5q0 205 -170 294 q-92 47 -209 50l4 20h12q135 0 229.5 95.5t94.5 220.5q0 135 -84 192q-57 43 -137 43q-145 0 -205 -109q-47 -88 -47 -256v-34h-21z" />
<glyph unicode="4" horiz-adv-x="1316" d="M-31 182v21l1057 1054h21v-860h88q53 0 82.5 19.5t50.5 62.5h20l-63 -297h-178v-258q0 -61 57 -94q25 -14 55 -14h23v-21h-693l3 21h20q47 0 80 30.5t35 75.5v260h-658zM315 397h312v301z" />
<glyph unicode="5" horiz-adv-x="1212" d="M20 -268l5 20h37.5t99 10.5t157 41t160 75.5t123.5 117q57 82 57 181t-67 165q-74 70 -199 70t-272 -56l-19 13l170 786l611 51q111 0 161 103h21l-86 -424l-629 -51l-39 -170q145 33 254 32.5t191 -22.5q178 -49 265 -171t87 -282q0 -139 -59.5 -246.5t-149.5 -173.5 q-211 -156 -500 -155q-217 0 -379 86z" />
<glyph unicode="6" horiz-adv-x="1382" d="M82 645q0 446 262 680q215 193 600 193q96 0 201 -15l8 -14q-184 -57 -264 -104.5t-125 -80t-78 -75.5t-57.5 -81t-40 -91t-24.5 -97.5t-15 -109.5q-6 -102 -6 -225t1 -180.5t6 -125t14 -101.5t28 -68q31 -57 96.5 -57.5t102 27t57.5 81.5q33 94 33 251.5t-27 227.5 q-37 100 -131 100q-47 0 -98 -32l-15 16q23 55 74 94t111.5 53.5t95.5 14.5q111 0 178.5 -33t120.5 -86q111 -109 110 -315q0 -229 -147 -373q-156 -150 -465 -150q-606 0 -606 676z" />
<glyph unicode="7" horiz-adv-x="1171" d="M10 748l58 477h1085l-262 -604q-59 -135 -147.5 -399.5t-133.5 -426.5h-348q100 164 255 440.5t216 407.5l107 227h-656q-59 0 -94 -29.5t-59 -92.5h-21z" />
<glyph unicode="8" horiz-adv-x="1302" d="M51 326q0 137 80 219t197 123q-188 147 -188.5 356t141 323.5t356.5 114.5t364.5 -98t149.5 -250q0 -104 -77 -175t-193 -99q240 -125 303 -213q67 -94 67 -217q0 -211 -172 -325t-469 -114q-414 0 -524 207q-35 66 -35 148zM397 377q0 -131 60 -211q69 -94 202 -94 q80 0 147.5 47t67.5 121.5t-69.5 138t-202.5 131.5t-158 82q-47 -84 -47 -215zM477 1184q0 -80 57.5 -135.5t227.5 -145.5q49 92 49 217q0 111 -47 172q-49 66 -127 66t-119 -47t-41 -127z" />
<glyph unicode="9" horiz-adv-x="1382" d="M82 731q0 227 147 371q156 150 465 149q606 0 606 -676q0 -446 -264 -679q-213 -190 -598 -191q-96 0 -200 12l-9 15q184 57 264 104t125.5 80t78 76t57 81t40 91t24.5 97t13 110q8 102 8.5 204.5t0.5 140.5t-2 86t-4.5 77.5t-6.5 65.5t-10 56.5t-14 44t-19.5 37 t-25.5 25.5q-27 20 -78 20t-89 -27.5t-56 -80.5q-33 -94 -33 -251t26 -228q39 -100 131 -101q47 0 99 33l14 -16q-22 -56 -73.5 -94.5t-112 -53t-94.5 -14.5q-111 0 -178.5 32.5t-120.5 86.5q-111 109 -111 317z" />
<glyph unicode=":" horiz-adv-x="512" d="M72 155.5q0 75.5 54 130t130 54.5t130 -54.5t54 -130t-54 -130t-130 -54.5t-130 54.5t-54 130zM72 939q0 77 54 131t130 54t130 -54t54 -131t-54 -130t-130 -53t-130 53t-54 130z" />
<glyph unicode=";" horiz-adv-x="532" d="M72 156q0 100 67 149q45 35 88 35q150 0 203 -119q31 -76 31 -149.5t-33 -141.5q-70 -143 -197 -186q-43 -14 -77.5 -14t-61.5 6l-8 26q61 27 84 88q8 25 8 44q0 66 -52 126t-52 136zM72 998.5q0 76.5 54 130t130 53.5t130 -53.5t54 -130t-54 -131t-130 -54.5t-130 54.5 t-54 131z" />
<glyph unicode="&#x3c;" horiz-adv-x="1026" d="M82 573v121l823 383v-145l-633 -297l633 -299v-146z" />
<glyph unicode="=" horiz-adv-x="985" d="M82 367v133h823v-133h-823zM82 725v133h823v-133h-823z" />
<glyph unicode="&#x3e;" horiz-adv-x="985" d="M82 190v146l633 299l-633 297v145l823 -383v-121z" />
<glyph unicode="?" horiz-adv-x="1009" d="M0 1280q47 82 167 132t286 50q240 0 367.5 -94t127.5 -268q0 -119 -66.5 -203t-234.5 -207q-106 -78 -119 -121q-16 -55 15 -116l-19 -13q-133 35 -184 135q-23 43 -23 75t3.5 60.5t26 66.5t49 66.5t53.5 61.5q59 74 59 199q0 256 -186 256q-199 0 -199 -316h-21z M276 155.5q0 75.5 54.5 130t131.5 54.5t130 -54.5t53 -130t-53 -130t-130 -54.5t-131.5 54.5t-54.5 130z" />
<glyph unicode="@" horiz-adv-x="2043" d="M41 547q0 119 55 262q84 205 266.5 354.5t425.5 214.5q160 43 287 43q518 0 750 -268q170 -199 170 -483q0 -338 -203 -585t-549 -321q-100 -23 -213 -22q-270 0 -604 129l-8 20q219 -90 413 -90q258 0 461 129q168 111 269 301q119 219 118.5 467t-90.5 398 q-102 172 -309 219q-80 14 -125 14h-55q-178 -4 -373 -137q-190 -131 -313 -393q-106 -221 -107 -391q0 -88 33 -126t69.5 -40t64.5 8t52.5 26.5t50 41t48 50t46 57.5t44.5 58q51 74 82 113l260 354q94 117 112 158h13l172 -827q18 -96 82 -97h10l-4 -14h-488l2 14h15 q31 0 58.5 24.5t27.5 44t-2 28.5l-17 108h-278q-98 -127 -174 -182q-82 -57 -199 -57.5t-215 83.5q-131 113 -131 314zM815 461h213l-39 248z" />
<glyph unicode="A" horiz-adv-x="1437" d="M-82 0v20h19q47 0 93 28t76 83l418 918q-61 170 -101 228t-67 89q-49 57 -123 84q-29 10 -67.5 10t-87.5 -18l-4 20q164 96 313 97q221 0 399 -218q90 -113 162 -272l328 -752q90 -207 133 -277.5t77 -120.5t66.5 -87t71.5 -72q68 -61 170 -92q43 -14 95.5 -14t109.5 16 l4 -20q-158 -92 -321.5 -92t-310 61.5t-287 214t-230.5 371.5l-55 135h-439l-81 -190q-10 -27 -10.5 -43.5t7 -36t31 -35t49.5 -15.5h19v-20h-457zM406 442h352l-129 318q-16 37 -39 104z" />
<glyph unicode="B" horiz-adv-x="1546" d="M-14 778l20 2q0 -381 252 -569v1075q-2 55 -41 91t-90 36h-27v21h631q348 0 512 -158q88 -86 88 -207q0 -133 -88 -223q-39 -43 -88 -62h21q139 0 255.5 -96t116.5 -260t-116 -272q-199 -189 -611 -189q-841 0 -841 688q0 61 6 123zM678 78q184 2 286.5 99t102.5 255 q0 174 -96.5 252t-222.5 78v18q43 0 72.5 23.5t43.5 58.5q27 76 27 133v62q-6 133 -53 198.5t-160 73.5v-1251z" />
<glyph unicode="C" horiz-adv-x="1699" d="M20 714q0 341 258.5 544.5t700.5 203.5q307 0 528 -94l-20 -391h-19q-106 383 -479 383q-248 0 -383 -167t-135 -462t141.5 -472t407.5 -185q293 0 463 189.5t170 510.5v49h16q12 -82 12 -174t-24 -190q-78 -309 -371 -430q-139 -57 -307 -58q-461 0 -710 201t-249 542z " />
<glyph unicode="D" horiz-adv-x="1798" d="M-205 991q41 221 212 332t429 111h475q385 0 601.5 -189.5t216.5 -527.5t-217.5 -527.5t-600.5 -189.5h-776v20h27q53 0 91 38t40 92v1169q-215 -23 -326 -121q-94 -84 -151 -215zM713 102h157q190 0 299 163t109 452t-108.5 451.5t-299.5 162.5l-157 -4v-1225z" />
<glyph unicode="E" horiz-adv-x="1458" d="M61 0v20h27q53 0 91 38t40 92v1134q-2 66 -55 105q-32 24 -73 24h-3h-27v21h682q88 0 157 14t87 22v-421h-20v16q0 121 -68 190.5t-188 73.5h-72v-571h285q98 2 159.5 64.5t61.5 160.5v8h20v-569h-20v10q0 96 -61.5 158.5t-157.5 64.5h-287v-551h375q150 0 264.5 98.5 t161.5 272.5h20l-78 -475h-1321z" />
<glyph unicode="F" horiz-adv-x="1452" d="M61 0v20h27q53 0 91 38t40 92v1134q-2 55 -40 92t-91 37h-27v21h908q63 0 138 12t105 24v-421h-20v16q0 121 -67.5 190.5t-188.5 73.5h-297v-571h551q98 2 159.5 64.5t61.5 160.5v8h21v-569h-21v10q0 96 -61.5 158.5t-157.5 64.5h-553v-505q0 -53 39 -91.5t92 -38.5h27 v-20h-736z" />
<glyph unicode="G" horiz-adv-x="1785" d="M20 719q0 336 246 539.5t647 203.5q231 0 451 -47q98 -20 160 -45l-21 -393h-18q-49 193 -193.5 288t-349.5 95t-338 -180.5t-133 -474.5q0 -186 57.5 -330t164 -222.5t236.5 -78.5t204.5 60.5t74.5 158.5v278v6q0 41 -26 64q-27 25 -78 25h-31v20h688v-20h-32 q-49 0 -76 -25q-25 -23 -25 -64v-6v-331q0 -119 47 -236q106 -258 340 -332q68 -20 135.5 -20t133.5 14l4 -20q-185 -80 -349 -80q-49 0 -98 6q-205 33 -354.5 153.5t-222.5 301.5q-178 -55 -375 -56q-387 0 -628 206t-241 542z" />
<glyph unicode="H" horiz-adv-x="1828" d="M-49 -352q164 63 217 176q37 76 43 137q8 80 8 182v1143q-2 53 -40 90t-91 37h-27v21h736v-21h-27q-74 0 -111 -61q-18 -29 -20 -64v-520h549v481q0 117 49 225.5t139 186.5q141 125 336 125q76 0 160 -21v-20q-98 -31 -168 -100q-43 -41 -76 -148q-16 -53 -18 -121.5 t-2 -126.5v-1099q0 -72 63 -111q31 -18 68 -19h24v-20h-733v20h25q55 0 93 38t40 92v516h-549v-523q0 -203 -98 -360q-102 -166 -326 -191q-23 -4 -49 -4q-96 0 -215 39v21z" />
<glyph unicode="I" horiz-adv-x="1019" d="M-82 1200q0 94 74 156.5t231 68.5q23 2 144.5 6.5t210.5 6.5q254 12 383 37l4 -21q-115 -18 -146 -98q-14 -39 -16 -99v-1107q0 -53 39 -91.5t92 -38.5h27v-20h-736v20h27q53 0 91 38t40 92v1181l-178 -6q-172 -6 -185 -127v-12q0 -57 39 -92t99 -35h24v-12 q-45 -25 -89 -25t-89 27q-86 51 -86 151z" />
<glyph unicode="J" horiz-adv-x="868" d="M-154 -348l4 18q33 -6 66 -6t77 9.5t83 37t67.5 72.5t45 91t24.5 101q16 90 16 195v1114q-2 53 -39.5 91t-91.5 38h-26v21h735v-21h-27q-74 0 -112 -63q-16 -29 -19 -66v-1120q0 -164 -52 -301t-155 -225q-104 -88 -254 -88q-1 -1 -2 -1q-150 0 -340 103z" />
<glyph unicode="K" horiz-adv-x="1683" d="M61 0v20h27q53 0 91 38t40 92v1136q-2 53 -40 90t-91 37h-27v21h736v-21h-27q-53 0 -91 -37t-40 -90v-1136q0 -53 39 -91.5t92 -38.5h27v-20h-736zM705 651l489 668q14 20 14 36.5t-6 28.5q-14 31 -57 31h-21v19h494v-19h-8q-137 0 -226 -100l-350 -424l469 -660 q223 -313 384 -434t372 -137l4 -22q-203 -115 -391 -115q-266 0 -522 266q-94 98 -195 238z" />
<glyph unicode="L" horiz-adv-x="911" d="M61 0v20h27q74 0 113 64q16 29 18 66v1134q-2 76 -67 113q-29 16 -64 16h-27v21h736v-21h-19q-59 0 -98 -37t-41 -92v-1192q0 -96 78 -121q793 -243 1155 -243q256 0 354 88l17 -15q-90 -195 -258 -288q-104 -57 -308 -58q-20 0 -70.5 2t-162 34t-187 57.5t-190.5 78.5 q-143 68 -274 136.5t-191.5 99.5t-126 58.5t-180.5 53t-234 25.5z" />
<glyph unicode="M" horiz-adv-x="2033" d="M-236 1528q145 78 285.5 78t257.5 -60q233 -121 400 -395l366 -596l608 907h19l231 -1198q70 -369 207 -512q108 -112 274 -112h3h30v-21q-127 -53 -264 -53q-272 0 -473 213q-168 176 -235 497l-95 433l-350 -521q-36 -48 -62 -118q-25 -65 -24 -112v-7h-18l-498 852 l-102 -688v-9q0 -33 23.5 -60.5t55.5 -27.5h31v-18h-448v20h32q55 0 97.5 34t52.5 91l141 879q-104 182 -231 324q-144 159 -289 159h-2h-16z" />
<glyph unicode="N" horiz-adv-x="1804" d="M-473 1638q115 82 248 82q88 0 179 -33.5t159 -76.5q127 -84 225 -185l842 -870v733q-2 53 -39 89t-88 36h-39v21h749v-21h-37q-51 0 -87.5 -36t-39.5 -87v-1169l37 -39l48 -51q49 -51 66 -67.5t70.5 -65t86 -67.5t90 -51t104.5 -40q53 -12 112.5 -12t115.5 16l8 -20 q-125 -78 -271 -78q-127 0 -264 75q-141 76 -276 216l-899 929v-721q0 -53 36.5 -89t88.5 -36h39v-20h-750v20h39q51 0 88 36t37 89v1160q-314 335 -552 335h-1q-59 0 -115 -20z" />
<glyph unicode="O" horiz-adv-x="1906" d="M20 723q0 279 173.5 478.5t451.5 246.5l12 -21q-84 -88 -134 -261t-50 -373q0 -326 131 -522.5t349 -196.5t349.5 178t131.5 475q0 188 -52.5 337.5t-144.5 223.5t-195 74q-133 0 -204 -80q-84 -92 -84 -229q0 -78 22 -166h-24q-63 106 -64 225q0 164 123 266 q74 63 182 84q66 10 106 10q10 0 20 1q31 1 65 -1q45 -2 132 -28.5t169 -64.5t154.5 -103.5t127.5 -142.5q119 -168 119 -406q0 -344 -255 -550t-674.5 -206t-678 207t-258.5 545z" />
<glyph unicode="P" horiz-adv-x="1556" d="M70 1364q172 12 415.5 53t306 47t115.5 6q164 0 259.5 -29.5t167 -76.5t114.5 -129q47 -90 47 -191.5t-26.5 -179.5t-75.5 -133q-147 -168 -377 -168q-80 0 -146 25q-121 45 -155 160l20 12q29 -41 94 -41q100 0 179 119q47 76 47 200q0 174 -88 258q-66 63 -166 64 q-25 0 -51 -4l-101 -15v-1191q2 -53 40 -91.5t91 -38.5h27v-20h-735v20h26q53 0 91 38t40 92v1079q-2 119 -118 119q-10 0 -37 -2z" />
<glyph unicode="Q" horiz-adv-x="1902" d="M10 750q0 150 66 282q135 279 481 387q172 53 379 54q420 0 676 -207t256 -535q0 -152 -58.5 -286t-158.5 -230q-207 -201 -496 -252q358 -41 693 -105.5t404.5 -77.5t194.5 -32q205 -33 339 -33t196 13q156 29 240 100l14 -6q-53 -190 -208 -301t-368 -131 q-72 -6 -184.5 -6t-321 35.5t-420.5 122.5t-937 429v21q225 0 409 151q90 76 152 205q72 156 72 354q0 238 -103 426q-57 102 -153 168q-109 76 -252 76q-195 0 -333 -162.5t-138 -490.5q0 -227 77 -373q86 -162 269 -162q82 0 141 35q113 63 127 223l22 2q3 -31 3 -75 q0 -48 -25 -113q-61 -168 -301 -168q-63 0 -143 14q-264 49 -437.5 220.5t-173.5 427.5z" />
<glyph unicode="R" horiz-adv-x="1603" d="M72 0v20h26q53 0 91 37t40 90v1137q-2 76 -65 113q-31 16 -66 16h-24v21h798q305 0 463 -107q142 -96 142 -295q0 -111 -60.5 -204t-146.5 -131t-170 -38q-25 0 -47 3q129 -27 235 -160q49 -59 110.5 -152.5t86.5 -128.5q123 -176 246 -287q262 -238 673 -262v-20 q-113 -80 -282 -115q-100 -20 -199.5 -20t-210 28.5t-217 86t-216.5 166t-179.5 222t-120.5 217t-97 204t-57 122.5q-59 123 -106 137v21h33q133 0 219 104q49 59 57 124t8 83q0 154 -90 224.5t-205 70.5h-90v-1177q0 -53 39 -91.5t92 -38.5h25v-20h-735z" />
<glyph unicode="S" horiz-adv-x="1374" d="M31 287q0 178 108 334l19 -15q-68 -121 -68 -233q0 -139 69.5 -246t186.5 -166t239 -59t205.5 39t122.5 104.5t39 137t-51 146t-151 130.5l-334 196q-254 150 -254 385q0 211 147 326q123 96 334 96q135 0 344 -20h160l-43 -334h-21q0 113 -88 182.5t-225 69.5t-211 -47 t-80 -125q-1 -8 -1 -15q0 -43 30 -75q31 -33 61.5 -50.5t55 -32t34.5 -18.5l383 -219q129 -72 201 -178q82 -121 82 -252q0 -88 -39 -187.5t-125 -183t-221 -137t-295 -53.5t-287 51q-238 94 -309 330q-18 63 -18 119z" />
<glyph unicode="T" horiz-adv-x="1536" d="M-133 1147q0 119 96 201q102 88 266 88h1047q63 0 137 12t105 25v-422l-21 2v14q0 166 -123 233q-59 31 -141 33h-201v-1186q2 -53 40 -90t91 -37h27v-20h-735v20h26q53 0 91 37t40 88v1188h-383q-115 0 -190 -55q-88 -63 -88 -158.5t63 -199.5l-22 -11 q-125 111 -125 238z" />
<glyph unicode="U" horiz-adv-x="1744" d="M61 1413v21h703v-21h-33q-63 0 -94 -49q-12 -23 -14 -47v-785q0 -213 107.5 -334.5t285.5 -121.5h3h3q170 0 279.5 113.5t109.5 316.5v784q0 254 148 436q70 84 163 124t183 40q29 0 57 -4v-20q-184 -23 -278.5 -174.5t-94.5 -401.5v-764q-4 -270 -173 -412.5 t-500.5 -142.5t-522 147.5t-190.5 393.5v12v789q0 43 -32 71.5t-77 28.5h-33z" />
<glyph unicode="V" d="M-82 1413v21h776v-21h-18q-43 0 -64.5 -27.5t-21.5 -52t8 -49.5l293 -702l369 845q61 141 142 244t154.5 160t168 86t153.5 29t100 -7v-20q-127 -8 -221 -68q-104 -68 -148 -125t-70 -90.5t-48 -79.5q-39 -70 -66 -129l-534 -1171q-109 -229 -117 -305h-18l-650 1349 q-63 113 -172 113h-16z" />
<glyph unicode="W" horiz-adv-x="1974" d="M-102 1413v21h735v-21h-19q-61 0 -82 -57q-2 -12 -2 -28.5t9 -41.5l223 -557l354 737l19 -2l405 -749l197 706q49 178 157 310q129 155 301 192q87 19 147 19h8q55 0 104 -7v-20q-416 -31 -558 -494l-380 -1239q-29 -100 -29 -227h-21l-471 889l-381 -778 q-59 -125 -115.5 -193t-98.5 -108.5t-85 -69.5q-117 -74 -209 -74q-49 0 -104 10v21q137 25 242 133q109 115 155 201q66 119 107 209l-416 1101q-29 59 -77 88t-99 29h-16z" />
<glyph unicode="X" horiz-adv-x="1583" d="M-356 -287q158 18 250 94q49 41 82.5 81t86.5 112l508 694l-391 600q-35 49 -90 84t-117 35h-28v21h823v-21h-25q-45 0 -69 -43q-14 -20 -14.5 -41.5t14.5 -42.5l231 -354l332 502q96 143 238 245q135 98 292 99q27 0 52 -4v-21q-119 -2 -222 -113q-78 -84 -161 -206 l-435 -650l422 -645q47 -70 125 -102q41 -17 82 -17h29v-20h-828v20h27q43 0 70 43q12 20 12 41t-12 43l-266 408l-400 -555q-229 -317 -512 -317q-53 0 -106 10v20z" />
<glyph unicode="Y" horiz-adv-x="1431" d="M-174 1534v20q60 5 115 5q299 0 530 -140q272 -166 385 -475q82 242 260 428q86 88 183.5 136t187.5 48q14 0 29 -2v-20q-94 -4 -198 -99.5t-183.5 -231.5t-138 -283.5t-72.5 -260.5v-509q0 -74 63 -111q31 -18 68 -19h24l2 -20h-735v20h27q53 0 91 38t40 92v509 q-45 215 -156 428q-61 117 -135 211.5t-176.5 161t-210.5 74.5z" />
<glyph unicode="Z" horiz-adv-x="1349" d="M72 0v18l680 1315h-369q-166 -2 -231 -125q-31 -59 -31 -141v-16h-21v422q31 -12 108 -24.5t108 -12.5h32h707q61 0 129.5 8t87.5 18v-18l-733 -1426q166 -37 402.5 -99t393 -102t326.5 -73t311.5 -33t253.5 43l17 -14q-104 -127 -234 -191q-134 -68 -265 -68q-1 1 -2 1 q-132 0 -275.5 31.5t-283 92t-293 127t-286.5 128.5q-309 139 -532 139z" />
<glyph unicode="[" horiz-adv-x="966" d="M246 -184v1663h633v-21l-213 -102v-1417l219 -103v-20h-639z" />
<glyph unicode="\" horiz-adv-x="899" d="M20 1425l121 56l740 -1452l-121 -58z" />
<glyph unicode="]" horiz-adv-x="741" d="M82 -164l219 103v1417l-213 102v21h633v-1663h-639v20z" />
<glyph unicode="^" horiz-adv-x="1171" d="M72 352l446 428h139l445 -428h-182l-332 314l-334 -314h-182z" />
<glyph unicode="_" horiz-adv-x="1024" d="M0 -123h1024v-102h-1024v102z" />
<glyph unicode="`" horiz-adv-x="1228" d="M111 1712q43 150 174 205q88 -76 183 -183.5t134 -197.5l-14 -14q-109 12 -242 67.5t-235 122.5z" />
<glyph unicode="a" d="M-82 0v20h19q47 0 93 28t76 83l478 1047q109 229 116 305h19l649 -1350q66 -113 172 -113h16v-20h-776v20h19q45 0 67.5 28t22.5 51.5t-10 50.5l-80 190h-439l-81 -190q-10 -27 -10.5 -43.5t7 -36t31 -35t49.5 -15.5h19v-20h-457zM406 442h350l-172 410z" />
<glyph unicode="b" horiz-adv-x="1495" d="M61 0v20h27q74 0 113 64q16 29 18 63v1139q-2 74 -65 111q-31 16 -66 16h-27v21h713q569 0 569 -357q0 -207 -167 -276q-47 -18 -101 -21q158 -8 265.5 -107.5t107.5 -262.5q0 -205 -174 -307.5t-467 -102.5h-746zM639 106h27h2q133 0 216 80t83 243t-65.5 246t-192.5 83 v18q195 0 195 276q0 279 -238 279h-27v-1225z" />
<glyph unicode="c" horiz-adv-x="1624" d="M72 719q0 231 106.5 399t308 256t494.5 88t514 -94l-20 -391h-19q-59 207 -172 295t-280 88q-227 0 -354.5 -168t-127.5 -468t118 -472t327 -178q242 0 350 114q102 106 160 410h16l49 -373q-151 -253 -569 -253h-3q-420 1 -659 197t-239 550z" />
<glyph unicode="d" horiz-adv-x="1724" d="M61 0v20h27q53 0 91 38t40 92v1146q0 49 -40 83t-91 34h-25l-2 21h777q385 0 601 -189.5t216 -527.5t-216 -527.5t-601 -189.5h-777zM639 102h158q190 0 298.5 163t108.5 452t-108.5 451.5t-298.5 162.5h-158v-1229z" />
<glyph unicode="e" horiz-adv-x="1363" d="M61 0v20h27q53 0 91 38t40 92v1134q-2 66 -55 105q-32 24 -73 24h-3h-27v21h908q88 0 156.5 14t86.5 22v-421h-20v16q0 164 -119 229q-57 33 -137 35h-297v-571h223q98 2 159.5 64.5t61.5 160.5v8h21v-569h-21v10q0 96 -61 158.5t-158 64.5h-225v-551h252 q150 0 264.5 98.5t161.5 272.5h20l-77 -475h-1199z" />
<glyph unicode="f" horiz-adv-x="1292" d="M61 0v20h27q53 0 91 38t40 92v1134q-2 53 -40 91t-91 38h-27v21h908q88 0 155.5 14t87.5 22v-421h-20v16q0 164 -119 229q-57 33 -137 35h-297v-571h223q98 2 159.5 64.5t61.5 158.5v10h21v-569h-21v10q0 96 -61 158.5t-158 64.5h-225v-505q0 -53 39 -91.5t92 -38.5h27 v-20h-736z" />
<glyph unicode="g" horiz-adv-x="1763" d="M72 720q0 349 217 545.5t602 196.5q166 0 342 -27.5t268 -66.5l-20 -391h-19q-106 383 -469 383q-471 0 -471 -660q0 -299 97.5 -462.5t295.5 -163.5q109 0 190 58t81 161l2 280q0 45 -27.5 69t-77.5 24h-32v20h688v-20h-31q-51 0 -78 -24q-24 -22 -24 -63v-6v-337 q-115 -145 -416 -224q-156 -41 -320 -41q-367 0 -582.5 200t-215.5 549z" />
<glyph unicode="h" horiz-adv-x="1828" d="M61 0v20h27q53 0 91 38t40 92v1136q-2 53 -40 90t-91 37h-27v21h736v-21h-27q-53 0 -91 -37t-40 -90v-518h551v518q-2 53 -40 90t-91 37h-27v21h735v-21h-26q-74 0 -113 -63q-16 -31 -18 -66v-1134q2 -53 40 -91.5t91 -38.5h26v-20h-735v20h27q53 0 91 37t40 90v519h-551 v-516q2 -76 66 -113q31 -16 65 -17h27v-20h-736z" />
<glyph unicode="i" horiz-adv-x="856" d="M61 0v20h27q53 0 91 38t40 92v1136q-2 53 -40 90t-91 37h-27v21h736v-21h-27q-53 0 -91 -37t-40 -90v-1136q0 -53 39 -91.5t92 -38.5h27v-20h-736z" />
<glyph unicode="j" horiz-adv-x="868" d="M-10 -391q240 109 239 500v1175q-2 53 -39.5 91t-91.5 38h-26v21h735v-21h-27q-74 0 -112 -63q-16 -29 -19 -66v-1182q0 -168 -95 -294.5t-247 -182.5q-109 -41 -225 -41q-45 0 -92 6v19z" />
<glyph unicode="k" horiz-adv-x="1681" d="M61 0v20h27q53 0 91 38t40 92v1136q-2 53 -40 90t-91 37h-27v21h736v-21h-27q-53 0 -91 -37t-40 -90v-1136q0 -53 39 -91.5t92 -38.5h27v-20h-736zM705 651l489 668q14 20 14 36.5t-6 28.5q-14 31 -57 31h-21v19h494v-19h-8q-137 0 -226 -100l-346 -418l480 -721 q100 -152 219 -156v-20h-221q-377 0 -527 205q-61 82 -172.5 263t-111.5 183z" />
<glyph unicode="l" horiz-adv-x="1335" d="M61 0v20h27q53 0 91 38t40 92v1134q-2 76 -65 113q-31 16 -66 16h-27v21h736v-21h-27q-53 0 -92 -38t-39 -91v-1180h252q150 0 264.5 98.5t161.5 272.5h20l-77 -475h-1199z" />
<glyph unicode="m" horiz-adv-x="1982" d="M-51 0v20h33q57 0 99 35t50 95l180 1312h19l688 -940l631 940h18l186 -1312q10 -59 51.5 -94.5t98.5 -35.5h33v-20h-727v18h32q33 0 59 28q22 24 22 51q0 4 -1 9l-78 599l-348 -517q-35 -48 -61 -118q-25 -65 -25 -112v-7h-18l-533 735l-71 -580q-1 -4 -1 -9 q0 -27 22 -51q26 -28 59 -28h32v-18h-450z" />
<glyph unicode="n" horiz-adv-x="1804" d="M41 0v20h39q51 0 88 36t37 89v1063q0 143 -21 228l-6 28h21l981 -872v696q-2 53 -39 89t-88 36h-39v21h749v-21h-37q-51 0 -87.5 -36t-39.5 -87v-1057q0 -152 21 -233l6 -29h-18l-981 873v-699q0 -74 63 -108q29 -16 62 -17h39v-20h-750z" />
<glyph unicode="o" horiz-adv-x="1843" d="M72 717q0 350 226.5 547.5t623.5 197.5q264 0 455.5 -88t294 -257t102.5 -400q0 -350 -227.5 -548t-625 -198t-623.5 198t-226 548zM524 717q0 -303 105.5 -473t293 -170t293 170t105.5 473t-105.5 473t-293 170t-293 -170t-105.5 -473z" />
<glyph unicode="p" horiz-adv-x="1447" d="M72 0v20h26q74 0 113 64q18 31 18 66v1144q0 49 -39.5 84t-91.5 35h-24l-2 21h780q281 0 430 -117q137 -104 137 -303q0 -94 -38 -183.5t-109 -146.5q-129 -104 -275 -104q-147 0 -278 94v20q74 12 111.5 39t60.5 51q51 55 68.5 129t17.5 105q0 162 -69.5 237.5 t-186.5 75.5h-72v-1181q2 -53 40 -91.5t91 -38.5h27v-20h-735z" />
<glyph unicode="q" horiz-adv-x="1867" d="M82 717q0 350 226.5 547.5t623.5 197.5q264 0 455.5 -88t294 -257t102.5 -400q0 -352 -228 -549q-111 -96 -268 -145q172 -29 301 -73t297 -106q276 -100 510 -100t408 125l14 -6q0 -131 -56.5 -237t-162.5 -167q-147 -86 -361 -86q-74 0 -221 34t-290.5 113t-262 163 t-192.5 141t-166 101t-178 46q-395 2 -620.5 199t-225.5 547zM535 717q0 -303 105 -473t292.5 -170t293 170t105.5 473t-105.5 473t-293 170t-292.5 -170t-105 -473z" />
<glyph unicode="r" horiz-adv-x="1622" d="M72 0v20h26q53 0 91 37t40 90v1137q-2 76 -65 113q-31 16 -66 16h-26v21h800q401 -1 510 -226q33 -72 33 -148.5t-16.5 -135t-50.5 -115.5q-76 -123 -261 -152q80 -23 144 -79q68 -57 127 -160q154 -262 235 -338q61 -57 156 -60v-20h-256q-266 0 -381 59 q-164 84 -233 289q-18 59 -31.5 125t-23 95.5t-21.5 55t-27 40.5q-25 25 -57 36v21h33q119 0 178 108q31 57 38 124t7 83.5v20.5q-14 270 -234 270h-90v-1177q0 -53 39 -91.5t92 -38.5h25v-20h-735z" />
<glyph unicode="s" horiz-adv-x="1320" d="M92 202v6q0 49 8 95q23 121 76 189h19q-2 -12 -2 -27q0 -152 119.5 -271.5t326.5 -119.5q139 0 214 58t75 133t-51.5 128t-165.5 107l-334 155q-141 63 -205 179q-51 90 -51 198q0 221 149 336q125 94 332 94q135 0 346 -20h160l-45 -334h-21q0 113 -88 182.5t-224 69.5 t-211 -47t-81 -125v-11q0 -89 123 -153q23 -12 60 -27l383 -178q238 -109 238 -355q0 -248 -177 -371q-176 -122 -469 -122q-170 0 -299 38t-186 95q-19 46 -19 98z" />
<glyph unicode="t" horiz-adv-x="1429" d="M20 1051v422q29 -12 104 -24.5t138 -12.5h907q63 0 137 12t105 25v-422l-20 2v14q0 166 -123 233q-59 31 -142 33h-200v-1186q2 -53 40 -90t91 -37h26v-20h-735v20h27q53 0 91 37t40 88v1188h-203q-123 -2 -192.5 -72.5t-69.5 -193.5v-14z" />
<glyph unicode="u" horiz-adv-x="1730" d="M61 1413v21h703v-21h-33q-45 0 -75.5 -27.5t-32.5 -70.5v-783q0 -215 98 -335.5t274 -120.5t275.5 113.5t99.5 316.5v809q-2 43 -32.5 70.5t-75.5 27.5h-33v21h461v-21h-33q-43 0 -75 -27.5t-34 -68.5v-791q0 -260 -160.5 -407.5t-451.5 -147.5q-369 0 -551 143.5 t-182 409.5v787q0 45 -32 73.5t-77 28.5h-33z" />
<glyph unicode="v" d="M-82 1413v21h776v-21h-18q-43 0 -64.5 -27.5t-21.5 -52t8 -49.5l293 -702l305 702q12 27 12 50.5t-22.5 51t-67.5 27.5h-18v21h456v-21h-18q-106 0 -170 -110l-477 -1047q-109 -229 -117 -305h-18l-650 1349q-63 113 -172 113h-16z" />
<glyph unicode="w" horiz-adv-x="1974" d="M-102 1413v21h735v-21h-19q-61 0 -82 -57q-2 -12 -2 -28.5t9 -41.5l223 -557l354 737l19 -2l407 -753l164 575q4 23 4 40t-6 37.5t-26.5 35t-49.5 14.5h-18v21h446v-21h-16q-72 0 -129 -49q-33 -29 -47 -68l-348 -1114q-4 -16 -11 -43l-14 -63q-6 -45 -6 -74t2 -47h-21 l-473 891l-323 -664q-53 -115 -56 -227h-18l-506 1341q-29 59 -77 88t-99 29h-16z" />
<glyph unicode="x" horiz-adv-x="1583" d="M-68 0v20h29q111 0 203 117l407 557l-391 600q-35 49 -90 84t-117 35h-28v21h823v-21h-25q-45 0 -69 -43q-14 -20 -14.5 -41.5t12.5 -42.5l239 -362l232 362q13 23 13 44q0 34 -34 63q-23 20 -51 20h-24l-3 21h531v-21h-29q-119 0 -203 -119l-342 -510l422 -645 q33 -49 89.5 -84t117.5 -35h29v-20h-828v20h27q43 0 70 43q12 20 12 41t-12 43l-271 412l-290 -412q-14 -24 -14 -45q0 -33 34 -61q25 -20 51 -21h27v-20h-533z" />
<glyph unicode="y" horiz-adv-x="1492" d="M-92 1413v21h790v-21h-24q-45 0 -70 -41q-14 -23 -14 -44t12 -42l281 -506l291 506q12 20 12 41t-15 43q-27 43 -69 43h-25v21h510v-21h-28q-61 0 -118 -35t-89 -86l-402 -633v-509q0 -53 38 -91.5t93 -38.5h25v-20h-733v20h26q53 0 91 37t40 90v512l-391 637 q-51 80 -141 107q-31 10 -61 10h-29z" />
<glyph unicode="z" horiz-adv-x="1366" d="M72 0v18l680 1315h-369q-123 -2 -192.5 -72.5t-69.5 -193.5v-16h-21v422q31 -12 108 -24.5t108 -12.5h32h707q86 0 145.5 10t71.5 16v-18l-688 -1342h288q150 0 264.5 99.5t161.5 273.5h21l-78 -475h-1169z" />
<glyph unicode="{" horiz-adv-x="911" d="M0 350q10 76 38 128t60.5 76t76.5 33t60.5 9h20.5q223 -8 342 -121q55 -53 86 -141t37 -168t8 -132t3 -85t7 -75t16.5 -66.5t30 -49t47 -33t71 -8t102.5 14.5l10 -15q-113 -84 -271 -84q-182 0 -313 131q-59 57 -93 151.5t-34 205.5l10 203q0 33 -4 69q-8 86 -73 119 q-31 18 -65 18t-71 -24q-68 -45 -86 -162zM0 938l16 6q18 -115 86 -160q37 -25 71 -24.5t70 19t55 67.5t19 98l-12 211v12q0 113 34 207t93 152q131 131 313 131q158 0 271 -84l-10 -14q-66 16 -102 16t-58 -6q-59 -20 -80 -64q-12 -25 -21.5 -57.5t-15.5 -200.5 q-12 -317 -131 -432q-127 -121 -350 -121q-215 0 -248 244z" />
<glyph unicode="|" horiz-adv-x="542" d="M205 -369v1803h133v-1803h-133z" />
<glyph unicode="}" horiz-adv-x="911" d="M-102 -283l10 15q59 -14 102 -14.5t70 8.5q51 14 82 94q14 35 20 213q12 328 131 442q129 121 351 121q216 0 249 -246l-16 -6q-10 59 -35 102q-47 84 -131 84q-63 0 -108 -67q-25 -39 -25 -139l10 -203q0 -111 -34.5 -205t-92.5 -152q-133 -131 -313 -131 q-158 0 -270 84zM-102 1573q113 84 270 84q180 0 313 -131q57 -57 92 -151.5t35 -207.5l-10 -200q0 -33 4 -70q8 -86 72 -121q33 -16 66.5 -16t70.5 24q66 45 86 160l16 -6q-18 -129 -77 -182q-29 -25 -64 -43.5t-113 -18.5q-219 0 -346 121q-53 51 -84.5 139t-38 177.5 t-10.5 218.5q-2 72 -22 133q-45 129 -250 76z" />
<glyph unicode="~" horiz-adv-x="1011" d="M55 518q0 88 47 146q72 90 189 90q49 0 113.5 -31t113.5 -70q139 -102 198.5 -102t92.5 47q16 25 16 60.5t-20 84.5h139q12 -55 12 -90t-7 -75.5t-46 -81.5q-76 -78 -194 -78q-80 0 -183 69q-45 29 -86 60q-104 74 -157.5 74t-79.5 -46q-14 -27 -14.5 -64.5t10.5 -82.5 h-133q-10 47 -11 90z" />
<glyph unicode="&#xa1;" horiz-adv-x="604" d="M92 0l47 694l92 273h144l92 -273l45 -694h-420zM123 1281q0 77 53 131t130 54t131.5 -54t54.5 -131t-54.5 -130t-131.5 -53t-130 53t-53 130z" />
<glyph unicode="&#xa2;" horiz-adv-x="1183" d="M31 723q0 254 186 397.5t522 143.5l15 172l96 -2l-14 -174q164 -14 274 -60l-23 -301h-12q-70 238 -246 270l-75 -921q113 4 157.5 32.5t67 54t41.5 71.5q33 74 61 217h13l47 -283q-102 -174 -396 -180l-14 -178l-94 6l14 174q-291 18 -455.5 162.5t-164.5 398.5z M414 719q-3 -404 245 -463l74 918q-322 -14 -319 -455z" />
<glyph unicode="&#xa3;" horiz-adv-x="1269" d="M61 0q115 225 148 420q16 109 20 233h-168l37 115h131v25q0 637 566 669q31 2 102.5 2t168.5 -29.5t144 -88.5l-98 -291h-20q-6 162 -56.5 233.5t-156.5 71.5q-213 0 -230 -281q-4 -63 -4 -140t4 -171h371l-43 -115h-324q-2 -248 -82 -358q-70 -96 -196 -133q23 6 44 6 t49 -1t56.5 -5t81.5 -12q92 -12 145.5 -12.5t116 11t133.5 46.5q150 74 240 254h21l-93 -400q-94 -43 -210.5 -56t-172.5 -13q-96 0 -258.5 34.5t-201.5 34.5t-60.5 -1t-95.5 -26.5t-88 -41.5h-21v20z" />
<glyph unicode="&#xa4;" horiz-adv-x="1107" d="M102 315l121 119q-109 123 -108.5 288t110.5 288l-123 123l43 43l123 -123q123 104 285 104t285 -106l125 125l45 -43l-127 -125q106 -123 106 -286t-104 -284l125 -123l-45 -45l-123 125q-123 -111 -287 -110.5t-287 106.5l-121 -121zM176 721q0 -156 110.5 -265.5 t265.5 -109.5t264.5 109.5t109.5 265.5t-109.5 265.5t-264.5 109.5t-265.5 -109.5t-110.5 -265.5z" />
<glyph unicode="&#xa5;" horiz-adv-x="1492" d="M-92 1413v21h790v-21h-24q-45 0 -70 -41q-14 -23 -14 -44t12 -42l281 -506l291 506q12 20 12 41t-15 43q-27 43 -69 43h-25v21h510v-21h-28q-61 0 -118 -35t-89 -86l-269 -422h193v-102h-258l-68 -109v-14h326v-102h-326v-393q0 -53 38 -91.5t93 -38.5h25v-20h-733v20h26 q53 0 91 37t40 90v396h-331v102h331v14l-67 109h-264v102h202l-262 426q-51 80 -141 107q-31 10 -61 10h-29z" />
<glyph unicode="&#xa6;" horiz-adv-x="542" d="M205 348h133v-717h-133v717zM205 717v717h133v-717h-133z" />
<glyph unicode="&#xa7;" horiz-adv-x="1097" d="M53 817q0 299 228 502q164 147 397 147q172 0 266 -77q55 -49 55 -93.5t-28 -85.5q-41 -66 -97 -65q-35 0 -86 38t-83 70q-68 70 -134 88q-8 2 -23.5 2t-42 -19t-26.5 -49t15.5 -61.5t41 -66.5t62.5 -75t68.5 -72.5t68.5 -67.5q152 -154 226 -316q88 -195 88 -360 q0 -231 -134 -389q-76 -88 -195.5 -140.5t-251.5 -52.5t-228 37q-150 57 -150 156q0 31 19 67q45 74 104 74q39 0 96.5 -39t93.5 -73q78 -72 148 -91q8 -2 24.5 -2t43 21.5t26.5 52.5t-40 86t-155.5 167t-152.5 149q-106 104 -166 223q-78 152 -78 315zM244 958 q0 -78 59 -190q33 -66 92.5 -128t116.5 -120.5t92 -96.5t86 -103.5t76 -116.5q47 -98 47 -193q0 -27 -4 -53q47 96 47 201q0 162 -197 383q-29 31 -88 94t-87.5 96t-69.5 84t-58 84q-47 100 -53 162.5t-6 94.5v38q-53 -117 -53 -236z" />
<glyph unicode="&#xa8;" horiz-adv-x="1228" d="M156 1514.5q0 62.5 44 106.5t106.5 44t106.5 -44t44 -106.5t-44 -107.5t-106.5 -45t-106.5 45t-44 107.5zM692 1514.5q0 62.5 44 106.5t106.5 44t106.5 -44t44 -106.5t-44 -107.5t-106.5 -45t-106.5 45t-44 107.5z" />
<glyph unicode="&#xa9;" horiz-adv-x="1736" d="M123 717q0 309 218 527t527.5 218t527.5 -218t218 -527t-218 -527.5t-527.5 -218.5t-527.5 218.5t-218 527.5zM229 717q0 -264 187.5 -451.5t452 -187.5t451.5 187.5t187 451.5t-187 451.5t-451.5 187.5t-452 -187.5t-187.5 -451.5zM379 717.5q0 195.5 145.5 326 t368.5 130.5q94 0 196.5 -24t174.5 -65l-13 -245h-12q-106 250 -334 250q-117 0 -182.5 -98.5t-65.5 -273.5t67 -273.5t196 -98.5t217 83t112 239h13l47 -222q-160 -186 -420 -186q-221 2 -365.5 132t-144.5 325.5z" />
<glyph unicode="&#xaa;" horiz-adv-x="798" d="M-10 772v8h8q53 0 84 47l235 473q57 129 62 154h8l332 -627q33 -47 82 -47h8v-8h-420v8h10q20 0 33.5 14.5t7.5 36.5l-32 68h-205l-31 -61q-12 -25 2 -41.5t37 -16.5h10v-8h-231zM227 952h154l-76 158z" />
<glyph unicode="&#xab;" horiz-adv-x="1128" d="M82 598q147 90 263 181t218 225l17 -11q-51 -92 -93.5 -170t-87.5 -225q51 -168 183 -403l-19 -15q-207 242 -481 418zM508 598q147 90 263 181t218 225l17 -11q-51 -92 -93.5 -170t-87.5 -225q51 -168 183 -403l-19 -15q-207 242 -481 418z" />
<glyph unicode="&#xac;" horiz-adv-x="1228" d="M82 700v134h1069v-435h-133v301h-936z" />
<glyph unicode="&#xad;" horiz-adv-x="778" d="M61 598l21 82h614l21 -82l-21 -84h-614z" />
<glyph unicode="&#xae;" horiz-adv-x="501" d="M20 1204q0 96 68 164t164 68t163.5 -68t67.5 -164t-67.5 -163.5t-163.5 -67.5t-164 67.5t-68 163.5zM70 1204q0 -78 51 -130t130 -52t131 52t52 130t-52 130t-131 52t-130 -52t-51 -130zM129 1085v5h4q20 0 23 20v195q-2 23 -23 22h-4v4h129q61 0 82 -39q8 -12 8 -28 q0 -59 -63 -68q23 -4 52.5 -51t51.5 -55v-5h-39q-33 0 -45 9.5t-18 12.5t-13.5 16.5t-9.5 16.5t-10 19q-18 45 -25 45v4h21q35 2 33 53.5t-43 49.5h-21v-199q0 -23 21 -22h6v-5h-117z" />
<glyph unicode="&#xaf;" horiz-adv-x="1228" d="M307 1440v174h594v-174h-594z" />
<glyph unicode="&#xb0;" horiz-adv-x="485" d="M41 1159q0 84 59.5 142.5t142.5 58.5t142 -58.5t59 -142.5t-59 -143.5t-142 -59.5t-142.5 59.5t-59.5 143.5zM160 1159q0 -35 24.5 -58.5t58 -23.5t58.5 23.5t25 58.5t-25 58.5t-58.5 23.5t-58 -23.5t-24.5 -58.5z" />
<glyph unicode="&#xb1;" horiz-adv-x="985" d="M82 102v134h823v-134h-823zM82 711v133h344v346h133v-346h346v-133h-346v-344h-133v344h-344z" />
<glyph unicode="&#xb2;" horiz-adv-x="858" d="M61 1380q111 92 334 93q209 0 303 -107q47 -51 47 -117.5t-31.5 -125t-82.5 -103.5q-96 -86 -197 -131h191q104 0 161 127h11l-84 -385h-635v10q25 35 73 98.5t73.5 99t64.5 91t60.5 94.5t43.5 86q41 88 41 160.5t-33 104.5t-82 32q-145 0 -145 -262h-12z" />
<glyph unicode="&#xb3;" horiz-adv-x="763" d="M41 1384q102 78 303 78q264 0 311 -139q10 -29 11 -59q0 -74 -42 -112t-104 -40q182 -39 182 -221q0 -106 -65 -180q-104 -117 -303 -117q-156 0 -279 68l2 10h15q135 0 232 62.5t97 168t-61 151.5t-135 48l2 10h10q70 0 117 52.5t47 115.5q0 78 -49 104q-29 16 -53 17 q-94 0 -123 -66q-23 -51 -23 -155v-23h-10z" />
<glyph unicode="&#xb4;" horiz-adv-x="1228" d="M418 1536q39 90 133 197.5t182 183.5q131 -55 176 -205q-102 -68 -236.5 -123t-240.5 -67z" />
<glyph unicode="&#xb6;" horiz-adv-x="1105" d="M102 1057q0 170 116 273.5t286 103.5h373h14h18t17.5 1t21.5 4t21.5 6t25 10t23.5 15q25 16 53 52l14 -13q-14 -86 -102 -143q-45 -29 -98 -33v-1032q0 -113 -38 -198t-102 -130l-18 17q51 86 53 184q2 31 2 123v1034h-170v-1331q0 -186 -88 -305q-49 -68 -129 -103 l-14 19q84 86 104.5 154.5t20.5 138t-2 96.5v682q-174 0 -288 102.5t-114 272.5z" />
<glyph unicode="&#xb7;" horiz-adv-x="512" d="M10 657q33 80 102.5 132.5t143.5 52.5t143.5 -52.5t102.5 -132.5q-33 -80 -102.5 -132t-143.5 -52t-143.5 52.5t-102.5 131.5zM117 657q29 -70 98 -96q20 -8 51 -8t71 29.5t58 74.5q-28 70 -98 97q-20 8 -51 8t-71 -30t-58 -75z" />
<glyph unicode="&#xb8;" horiz-adv-x="1228" d="M438 -401l2 20q76 0 144.5 42t68.5 124q0 33 -32 57q-33 23 -80 23t-86 -12l-11 20l99 129h127l-88 -100q29 10 49 10h41.5t62.5 -11.5t65.5 -42t24.5 -55.5q0 -94 -65 -149q-84 -74 -205 -74q-55 0 -117 19z" />
<glyph unicode="&#xb9;" horiz-adv-x="598" d="M61 1382v11q66 2 192 21.5t189 49.5h11v-762q0 -25 18 -42t43 -17h23v-12h-467v12h22q27 0 44.5 17.5t17.5 41.5v592q0 35 -14.5 61.5t-69.5 26.5h-9z" />
<glyph unicode="&#xba;" horiz-adv-x="819" d="M41 1113q0 165 94 253t274.5 88t274.5 -88t94 -253t-94 -253t-274.5 -88t-274.5 88t-94 253zM287 1113q0 -288 123 -288q63 0 91.5 72t28.5 179.5t-6 159.5t-20 89q-29 76 -94 76q-123 0 -123 -288z" />
<glyph unicode="&#xbb;" horiz-adv-x="1128" d="M123 195q41 72 55 98q80 150 127 305q-20 61 -46 131t-134 264l16 11q102 -133 218 -224.5t264 -181.5q-276 -176 -482 -418zM549 195q51 92 93 171.5t89 231.5q-51 162 -180 395l16 11q72 -92 162 -173t156.5 -128.5t163.5 -104.5q-276 -176 -482 -418z" />
<glyph unicode="&#xbc;" horiz-adv-x="1574" d="M41 1382v11q66 2 191.5 21.5t189.5 49.5h10v-762q0 -25 18.5 -42t43.5 -17h24v-12h-469v12h23q27 0 44 17.5t17 41.5v592q0 88 -84 88h-8zM244 23l979 1458l96 -66l-977 -1456zM674 188v13l680 635h12v-500h53q59 0 84 57h13l-43 -205h-107v-110q0 -27 20.5 -46.5 t47.5 -19.5h14v-12h-459v12h15q27 0 47 18.5t20 45.5v112h-397zM918 338h153v135z" />
<glyph unicode="&#xbd;" horiz-adv-x="1740" d="M41 1382v11q66 2 191.5 21.5t189.5 49.5h10v-762q0 -25 18.5 -42t43.5 -17h22v-12h-467v12h23q27 0 44 17.5t17 41.5v592q0 88 -84 88h-8zM199 23l979 1458l96 -66l-977 -1456zM924 750q111 94 333 94q150 0 250.5 -62.5t100.5 -169.5q0 -160 -215 -301q-49 -31 -97 -53 h191q104 0 162 127h10l-84 -385h-635v10q25 33 84 113t86 116.5t71 104.5t64 109q51 115 51 187.5t-33.5 105t-80.5 32.5q-145 0 -148 -264h-10z" />
<glyph unicode="&#xbe;" horiz-adv-x="1718" d="M51 1384q102 78 281.5 78t260.5 -51t81 -136t-42 -123t-102 -40q182 -39 183 -221q0 -106 -66 -180q-106 -117 -305 -117q-154 0 -276 68l2 10h14q135 0 232.5 62.5t97.5 168t-61.5 151.5t-135.5 48l2 10h8q72 0 118 52.5t46 115.5q0 78 -47 104q-31 16 -53 17 q-94 0 -125 -66q-20 -51 -21 -155v-23h-12zM385 23l979 1458l96 -66l-977 -1456zM838 188v13l680 637h12v-500h53q59 0 84 55h12l-43 -205h-106v-110q0 -37 35 -58q14 -8 32 -8h15v-12h-459v12h14q27 0 46.5 18.5t21.5 45.5v112h-397zM1081 338h154v135z" />
<glyph unicode="&#xbf;" horiz-adv-x="1071" d="M61 334q0 119 67 203t234 206q106 78 119 121q16 55 -14 117l18 12q133 -35 185 -135q23 -43 22.5 -74.5t-3.5 -60.5t-25.5 -67t-49 -66.5t-53.5 -61.5q-59 -73 -59 -198q0 -256 186 -256q199 0 199 315h20l103 -235q-47 -82 -167 -132.5t-286 -50.5q-240 0 -368 94.5 t-128 268.5zM365 1278q0 76 53 130t130 54t131 -54t54 -130t-54 -130t-131 -54t-130 54t-53 130z" />
<glyph unicode="&#xc0;" horiz-adv-x="1437" d="M-82 0v20h19q47 0 93 28t76 83l418 918q-61 170 -101 228t-67 89q-49 57 -123 84q-29 10 -67.5 10t-87.5 -18l-4 20q162 96 315 97q150 0 283 -103q162 -125 276 -387l328 -752q90 -207 133 -277.5t77 -120.5t66.5 -87t71.5 -72q68 -61 170 -92q43 -14 95.5 -14t109.5 16 l4 -20q-158 -92 -321.5 -92t-310 61.5t-287 213t-230.5 372.5l-55 135h-439l-81 -190q-10 -27 -10.5 -43.5t7 -36t31 -35t49.5 -15.5h19v-20h-457zM238 1796q43 150 174 205q88 -76 183 -183.5t134 -197.5l-14 -14q-109 12 -242 67.5t-235 122.5zM406 442h352l-129 318 q-16 37 -39 104z" />
<glyph unicode="&#xc1;" horiz-adv-x="1437" d="M-82 0v20h19q47 0 93 28t76 83l418 918q-61 170 -101 228t-67 89q-49 57 -123 84q-29 10 -67.5 10t-87.5 -18l-4 20q162 96 315 97q150 0 283 -103q162 -125 276 -387l328 -752q90 -207 133 -277.5t77 -120.5t66.5 -87t71.5 -72q68 -61 170 -92q43 -14 95.5 -14t109.5 16 l4 -20q-158 -92 -321.5 -92t-310 61.5t-287 214t-230.5 371.5l-55 135h-439l-81 -190q-10 -27 -10.5 -43.5t7 -36t31 -35t49.5 -15.5h19v-20h-457zM406 442h352l-129 318q-16 37 -39 104zM625 1614q39 90 133 197.5t184 183.5q131 -55 174 -205q-102 -68 -235 -123.5 t-242 -67.5z" />
<glyph unicode="&#xc2;" horiz-adv-x="1437" d="M-82 0v20h19q47 0 93 28t76 83l418 918q-61 170 -101 228t-67 89q-49 57 -123 84q-29 10 -67.5 10t-87.5 -18l-4 20q164 96 313 97q221 0 399 -218q90 -113 162 -272l328 -752q90 -207 133 -277.5t77 -120.5t66.5 -87t71.5 -72q68 -61 170 -92q43 -14 95.5 -14t109.5 16 l4 -20q-158 -92 -321.5 -92t-310 61.5t-287 214t-230.5 371.5l-55 135h-439l-81 -190q-10 -27 -10.5 -43.5t7 -36t31 -35t51.5 -15.5h17v-20h-457zM313 1589l346 361h23l367 -361l-15 -16l-364 133l-342 -133zM406 442h352l-129 318q-16 37 -39 104z" />
<glyph unicode="&#xc3;" horiz-adv-x="1437" d="M-82 0v20h19q47 0 93 28t76 83l418 918q-61 170 -101 228t-67 89q-49 57 -123 84q-29 10 -67.5 10t-87.5 -18l-4 20q162 96 315 97q150 0 283 -103q162 -125 276 -387l328 -752q90 -207 133 -277.5t77 -120.5t66.5 -87t71.5 -72q68 -61 170 -92q43 -14 95.5 -14t109.5 16 l4 -20q-158 -92 -321.5 -92t-310 61.5t-287 213t-230.5 372.5l-55 135h-439l-81 -190q-12 -27 -12.5 -50.5t22 -51.5t67.5 -28h19v-20h-457zM307 1671q0 123 92 211q63 61 140 61.5t188 -55t203 -55.5q31 0 81 29.5t62 60.5h25q12 -35 12 -75t-16 -79q-45 -102 -125 -139 q-49 -25 -113.5 -24.5t-165.5 51.5q-102 51 -138 56t-66.5 5t-80 -32.5t-65.5 -73.5h-25q-8 29 -8 59zM406 442h352l-129 318q-16 37 -39 104z" />
<glyph unicode="&#xc4;" horiz-adv-x="1437" d="M-82 0v20h19q47 0 93 28t76 83l418 918q-61 170 -101 228t-67 89q-49 57 -123 84q-29 10 -67.5 10t-87.5 -18l-4 20q164 96 313 97q221 0 399 -218q90 -113 162 -272l328 -752q90 -207 133 -277.5t77 -120.5t66.5 -87t71.5 -72q68 -61 170 -92q43 -14 95.5 -14t109.5 16 l4 -20q-158 -92 -321.5 -92t-310 61.5t-287 214t-230.5 371.5l-55 135h-439l-81 -190q-10 -27 -10.5 -43.5t7 -36t31 -35t49.5 -15.5h19v-20h-457zM246 1739.5q0 62.5 44 106.5t106.5 44t107.5 -44t45 -106.5t-45 -107.5t-107.5 -45t-106.5 45t-44 107.5zM406 442h352 l-129 318q-16 37 -39 104zM784 1739.5q0 62.5 44 106.5t106.5 44t106.5 -44t44 -106.5t-44 -107.5t-106.5 -45t-106.5 45t-44 107.5z" />
<glyph unicode="&#xc5;" horiz-adv-x="1437" d="M-82 0v20h19q47 0 93 28t76 83l418 918q-61 170 -101 228t-67 89q-49 57 -123 84q-29 10 -67.5 10t-87.5 -18l-4 20q162 96 315 97q150 0 283 -103q162 -125 276 -387l328 -752q90 -207 133 -277.5t77 -120.5t66.5 -87t71.5 -72q68 -61 170 -92q43 -14 95.5 -14t109.5 16 l4 -20q-158 -92 -321.5 -92t-310 61.5t-287 214t-230.5 371.5l-55 135h-439l-81 -190q-10 -27 -10.5 -43.5t7 -36t31 -35t49.5 -15.5h19v-20h-457zM406 442h352l-129 318q-16 37 -39 104zM430 1787q0 79 69.5 131t173 52t172 -51t68.5 -130t-69.5 -132t-173 -53t-172 52 t-68.5 131zM567 1787q0 -52 30 -86t75 -34t74.5 34t29.5 86t-29.5 87t-74.5 35t-75 -35t-30 -87z" />
<glyph unicode="&#xc6;" horiz-adv-x="1927" d="M-696 -186l2 20q37 -2 73.5 -2t85 5t123.5 36q147 57 303 289l795 1165q14 31 -2 56.5t-49 25.5h-10v25h585q66 0 143 12t107 24v-421h-20v16q0 121 -68.5 191.5t-191.5 72.5h-72v-577h291q94 4 154.5 66.5t60.5 156.5v10h20v-569h-20v10q0 94 -59.5 156.5t-151.5 66.5 h-295v-545h375q150 0 263.5 98.5t160.5 272.5h20l-78 -475h-1284l2 20h19q41 0 70.5 29t31.5 70h2v530h-280l-328 -536q-82 -138 -181.5 -220.5t-188.5 -106.5t-186 -24t-222 52zM473 752h217v358z" />
<glyph unicode="&#xc7;" horiz-adv-x="1699" d="M20 709q0 346 258.5 549.5t700.5 203.5q307 0 528 -94l-20 -391h-19q-106 383 -479 383q-248 0 -383 -167t-135 -462t141.5 -472t407.5 -185q293 0 463 189.5t170 510.5v49h16q12 -82 12 -144.5t-8 -143t-48 -175t-102.5 -166t-144.5 -120.5q-166 -100 -391 -103l-76 -88 q29 10 49.5 10.5t41 0.5t62.5 -11.5t66.5 -42t24.5 -55.5q0 -94 -65 -150q-86 -72 -205 -71q-57 0 -117 16l2 21q74 0 143.5 42t69.5 124q0 33 -35 57q-61 43 -166 10l-10 21l94 120q-408 25 -627 222.5t-219 511.5z" />
<glyph unicode="&#xc8;" horiz-adv-x="1458" d="M61 0v20h27q53 0 91 38t40 92v1134q-2 76 -65 113q-31 16 -66 16h-27v21h682q63 0 138 12t106 24v-421h-20v16q0 164 -119 229q-57 33 -137 35h-72v-571h285q98 2 159.5 64.5t61.5 160.5v8h20v-569h-20v10q0 96 -61.5 158.5t-157.5 64.5h-287v-551h375q150 0 264.5 98.5 t161.5 272.5h20l-78 -475h-1321zM135 1755q43 150 174 205q127 -109 209 -214.5t109 -166.5l-15 -14q-109 12 -241.5 67.5t-235.5 122.5z" />
<glyph unicode="&#xc9;" horiz-adv-x="1458" d="M61 0v20h27q53 0 91 38t40 92v1134q-2 53 -40 91t-91 38h-27v21h682q88 0 157 14t87 22v-421h-20v16q0 164 -119 229q-57 33 -137 35h-72v-571h285q98 2 159.5 64.5t61.5 160.5v8h20v-569h-20v10q0 96 -61.5 158.5t-157.5 64.5h-287v-551h375q150 0 264.5 98.5 t161.5 272.5h20l-78 -475h-1321zM522 1573q39 90 134.5 197.5t183.5 183.5q131 -55 174 -205q-102 -68 -235 -123t-242 -67z" />
<glyph unicode="&#xca;" horiz-adv-x="1458" d="M61 0v20h27q53 0 91 38t40 92v1134q-2 53 -40 91t-91 38h-27v21h682q88 0 157 14t87 22v-421h-20v16q0 164 -119 229q-57 33 -137 35h-72v-571h285q98 2 159.5 64.5t61.5 160.5v8h20v-569h-20v10q0 96 -61.5 158.5t-157.5 64.5h-287v-551h375q150 0 264.5 98.5 t161.5 272.5h20l-78 -475h-1321zM211 1548l346 361h25l364 -361l-14 -16l-365 133l-342 -133z" />
<glyph unicode="&#xcb;" horiz-adv-x="1458" d="M61 0v20h27q53 0 91 38t40 92v1134q-2 53 -40 91t-91 38h-27v21h682q63 0 138 12t106 24v-421h-20v16q0 164 -119 229q-57 33 -137 35h-72v-571h285q98 2 159.5 64.5t61.5 160.5v8h20v-569h-20v10q0 96 -61.5 158.5t-157.5 64.5h-287v-551h375q150 0 264.5 98.5 t161.5 272.5h20l-78 -475h-1321zM145 1698.5q0 62.5 44 106.5t106.5 44t106.5 -44t44 -106.5t-44 -107.5t-106.5 -45t-106.5 45t-44 107.5zM682 1698.5q0 62.5 44 106.5t106.5 44t106.5 -44t44 -106.5t-44 -107.5t-106.5 -45t-106.5 45t-44 107.5z" />
<glyph unicode="&#xcc;" horiz-adv-x="1019" d="M-82 1200q0 94 74 156.5t231 68.5q23 2 144.5 6.5t210.5 6.5q254 12 383 37l4 -21q-88 -14 -124 -60t-38 -137v-1107q2 -53 40 -91.5t91 -38.5h27v-20h-736v20h27q53 0 91 38t40 92v1181l-178 -6q-172 -6 -185 -127v-12q0 -57 39 -92t99 -35h24v-12q-45 -25 -89 -25 t-89 27q-86 51 -86 151zM154 1755q45 150 176 205q88 -76 182 -183.5t133 -197.5l-14 -14q-106 12 -240.5 67.5t-236.5 122.5z" />
<glyph unicode="&#xcd;" horiz-adv-x="1019" d="M-82 1200q0 94 74 156.5t231 68.5q23 2 144.5 6.5t210.5 6.5q254 12 383 37l4 -21q-88 -14 -124 -60t-38 -137v-1107q2 -53 40 -91.5t91 -38.5h27v-20h-736v20h27q53 0 91 38t40 92v1181l-178 -6q-172 -6 -185 -127v-12q0 -57 39 -92t99 -35h24v-12q-45 -25 -89 -25 t-89 27q-86 51 -86 151zM541 1573q39 90 134 197.5t183 183.5q131 -55 174 -205q-102 -68 -235 -123t-242 -67z" />
<glyph unicode="&#xce;" horiz-adv-x="1019" d="M-82 1200q0 94 74 156.5t231 68.5q29 2 111 4.5t157.5 5.5t163.5 9q195 10 306 31l4 -21q-88 -14 -124 -60t-38 -137v-1107q0 -53 39 -91.5t92 -38.5h27v-20h-736v20h27q53 0 91 38t40 92v1181l-178 -6q-172 -6 -185 -127v-12q0 -57 39 -92t99 -35h24v-12 q-45 -25 -89 -25t-89 27q-86 51 -86 151zM229 1548l346 361h25l365 -361l-15 -16l-362 133l-344 -133z" />
<glyph unicode="&#xcf;" horiz-adv-x="1019" d="M-82 1200q0 94 74 156.5t231 68.5q23 2 144.5 6.5t210.5 6.5q254 12 383 37l4 -21q-115 -18 -146 -98q-14 -39 -16 -99v-1107q0 -53 39 -91.5t92 -38.5h27v-20h-736v20h27q53 0 91 38t40 92v1181l-178 -6q-172 -6 -185 -127v-12q0 -57 39 -92t99 -35h24v-12 q-45 -25 -89 -25t-89 27q-86 51 -86 151zM164 1698.5q0 62.5 44 106.5t106.5 44t106.5 -44t44 -106.5t-44 -107.5t-106.5 -45t-106.5 45t-44 107.5zM700 1698.5q0 62.5 45.5 106.5t107.5 44t106.5 -44t44.5 -106.5t-44.5 -107.5t-106.5 -45t-107.5 45t-45.5 107.5z" />
<glyph unicode="&#xd0;" horiz-adv-x="1798" d="M-205 991q41 221 212 332t429 111h475q385 0 601.5 -189.5t216.5 -527.5t-217.5 -527.5t-600.5 -189.5h-776v20h27q53 0 91 38t40 92v516h-158v102h158v551q-215 -23 -326 -121q-94 -84 -151 -215zM713 102h157q190 0 299 163t109 452t-108.5 451.5t-299.5 162.5l-157 -4 v-559h221v-102h-221v-564z" />
<glyph unicode="&#xd1;" horiz-adv-x="1804" d="M-473 1638q115 82 258 82q125 0 274 -80q147 -82 279 -215l842 -870v733q-2 53 -39 89t-88 36h-39v21h749v-21h-37q-51 0 -87.5 -36t-39.5 -87v-1169l37 -39l48 -51q49 -51 66 -67.5t70.5 -65t86 -67.5t90 -51t104.5 -40q53 -12 112.5 -12t115.5 16l8 -20 q-125 -78 -271 -78q-127 0 -264 75q-141 76 -276 216l-899 929v-721q0 -72 63 -108q29 -16 62 -17h39v-20h-750v20h39q51 0 88 36t37 89v1160q-315 336 -553 335q-59 0 -115 -20zM457 1630q0 123 92 211q63 61 156 62q51 0 101 -22.5t109.5 -50.5t96.5 -33t67.5 -5t81 29.5 t62.5 60.5h24q12 -35 12.5 -75t-16.5 -78q-45 -102 -125 -140q-49 -25 -113.5 -24.5t-164.5 51.5q-102 51 -138 56t-67 5t-80 -32.5t-66 -73.5h-24q-8 29 -8 59z" />
<glyph unicode="&#xd2;" horiz-adv-x="1906" d="M20 723q0 279 173.5 478.5t451.5 246.5l12 -21q-84 -88 -134 -261t-50 -373q0 -326 131 -522.5t349 -196.5t349.5 178t131.5 475q0 188 -52.5 337.5t-144.5 223.5t-197 74q-131 0 -202 -80q-84 -92 -84 -229q0 -78 22 -166h-24q-63 106 -64 225q0 164 123 266 q74 63 182 84q68 10 109 11q125 0 213 -28t170 -66t154.5 -103.5t127.5 -142.5q119 -168 119 -406q0 -344 -255 -550t-674.5 -206t-678 207t-258.5 545zM516 1784q45 150 176 205q125 -109 207 -214.5t109 -166.5l-15 -15q-106 12 -240.5 67.5t-236.5 123.5z" />
<glyph unicode="&#xd3;" horiz-adv-x="1906" d="M20 723q0 279 173.5 478.5t451.5 246.5l12 -21q-84 -88 -134 -261t-50 -373q0 -326 131 -522.5t354 -196.5q213 0 345 176q131 178 131 477q0 188 -52.5 337.5t-144.5 223.5t-197 74q-131 0 -202 -80q-84 -92 -84 -229q0 -78 22 -166h-24q-63 106 -64 225q0 164 123 266 q74 63 182 84q68 10 109 11q125 0 213 -28t170 -66t154.5 -103.5t127.5 -142.5q119 -168 119 -406q0 -344 -255 -550t-674.5 -206t-678 207t-258.5 545zM903 1602q55 127 238 305q43 43 80 75q131 -55 174 -204q-102 -68 -235 -123.5t-242 -67.5z" />
<glyph unicode="&#xd4;" horiz-adv-x="1906" d="M20 723q0 279 173.5 478.5t451.5 246.5l12 -21q-84 -88 -134 -261t-50 -373q0 -326 131 -522.5t349 -196.5t349.5 178t131.5 475q0 188 -52.5 337.5t-144.5 223.5t-197 74q-131 0 -202 -80q-84 -92 -84 -229q0 -78 22 -166h-24q-63 106 -64 225q0 127 79 224.5t226 125.5 q68 10 109 11q125 0 213 -28t170 -66t154.5 -103.5t127.5 -142.5q119 -168 119 -406q0 -344 -255 -550t-674.5 -206t-678 207t-258.5 545zM592 1577l346 360h25l366 -360l-16 -16l-363 133l-344 -133z" />
<glyph unicode="&#xd5;" horiz-adv-x="1906" d="M20 723q0 279 173.5 478.5t451.5 246.5l12 -21q-84 -88 -134 -261t-50 -373q0 -326 131 -522.5t354 -196.5q213 0 345 176q131 178 131 477q0 188 -52.5 337.5t-144.5 223.5t-197 74q-131 0 -202 -80q-84 -92 -84 -229q0 -78 22 -166h-24q-63 106 -64 225q0 127 79 224.5 t226 125.5q68 10 109 11q125 0 213 -28t170 -66t154.5 -103.5t127.5 -142.5q119 -168 119 -406q0 -344 -255 -550t-675.5 -206t-678 207t-257.5 545zM588 1659q0 123 90 211q63 61 140 61t188.5 -55t203.5 -55q29 0 79.5 29.5t62.5 60.5h26q12 -35 12.5 -75t-18.5 -79 q-43 -102 -125 -139q-49 -25 -105.5 -25t-111.5 23q-53 23 -110.5 51.5t-91 33.5t-63.5 5t-79 -33t-65 -74h-27q-6 29 -6 60z" />
<glyph unicode="&#xd6;" horiz-adv-x="1906" d="M20 723q0 279 173.5 478.5t451.5 246.5l12 -21q-84 -88 -134 -261t-50 -373q0 -326 131 -522.5t354 -196.5q213 0 345 176q131 178 131 477q0 188 -52.5 337.5t-144.5 223.5t-197 74q-131 0 -202 -80q-84 -92 -84 -229q0 -78 22 -166h-24q-63 106 -64 225q0 164 123 266 q74 63 182 84q68 10 109 11q125 0 213 -28t170 -66t154.5 -103.5t127.5 -142.5q119 -168 119 -406q0 -344 -255 -550t-674.5 -206t-678 207t-258.5 545zM526 1727.5q0 62.5 44 106.5t106.5 44t106.5 -44t44 -106.5t-44 -107.5t-106.5 -45t-106.5 45t-44 107.5zM1063 1727.5 q0 62.5 45 106.5t107.5 44t106.5 -44t44 -106.5t-44 -107.5t-106.5 -45t-107.5 45t-45 107.5z" />
<glyph unicode="&#xd7;" horiz-adv-x="839" d="M82 391l244 244l-244 244l94 94l244 -244l244 244l94 -94l-244 -244l244 -244l-94 -94l-244 244l-244 -244z" />
<glyph unicode="&#xd8;" horiz-adv-x="1853" d="M-10 723q0 279 173 478.5t451 246.5l13 -21q-84 -88 -134.5 -261t-50.5 -396t76 -399l742 862q-102 129 -248 129q-133 0 -205 -80q-84 -92 -84 -229q0 -78 22 -166h-24q-63 106 -64 225q0 164 123 266q113 96 287 96.5t338 -73.5l74 86l90 -70l-60 -69 q213 -131 299 -355q47 -123 47 -266q0 -344 -254.5 -550t-674.5 -206q-289 0 -510 103l-103 -121l-90 74l90 104q-156 100 -239.5 252t-83.5 340zM580 262q131 -188 346 -188t346 178t131 475q0 233 -80 403z" />
<glyph unicode="&#xd9;" horiz-adv-x="1744" d="M61 1413v21h703v-21h-33q-72 0 -100 -61q-8 -16 -8 -35v-785q0 -213 107.5 -334.5t285.5 -121.5h3h3q170 0 279.5 113.5t109.5 316.5v784q0 254 148 436q70 84 163 124t183 40q29 0 57 -4v-20q-184 -23 -278.5 -174.5t-94.5 -401.5v-764q-4 -270 -173 -412.5 t-500.5 -142.5t-522 147.5t-190.5 393.5v12v789q0 43 -32 71.5t-77 28.5h-33zM588 1755q43 150 174 205q88 -76 183 -183.5t134 -197.5l-14 -14q-109 12 -242 67.5t-235 122.5z" />
<glyph unicode="&#xda;" horiz-adv-x="1744" d="M61 1413v21h703v-21h-33q-72 0 -100 -61q-8 -16 -8 -35v-785q0 -213 107.5 -333.5t285.5 -120.5h3h3q170 0 279.5 112.5t109.5 315.5v784q0 254 148 436q70 84 163 124t183 40q29 0 57 -4v-20q-184 -23 -278.5 -174.5t-94.5 -401.5v-764q-4 -270 -173 -412.5 t-500.5 -142.5t-522 147.5t-190.5 393.5v12v789q0 43 -32 71.5t-77 28.5h-33zM975 1573q39 90 134 197.5t183 183.5q131 -55 174 -205q-102 -68 -235 -123t-242 -67z" />
<glyph unicode="&#xdb;" horiz-adv-x="1744" d="M61 1413v21h703v-21h-33q-47 0 -76.5 -28.5t-31.5 -67.5v-785q0 -213 107.5 -334.5t285.5 -121.5h3h3q170 0 279.5 113.5t109.5 316.5v784q0 254 148 436q70 84 163 124t183 40q29 0 57 -4v-20q-184 -23 -278.5 -174.5t-94.5 -401.5v-764q-4 -270 -173 -412.5 t-500.5 -142.5t-522 147.5t-190.5 393.5v12v789q0 43 -32 71.5t-77 28.5h-33zM664 1548l346 361h24l365 -361l-15 -16l-364 133l-342 -133z" />
<glyph unicode="&#xdc;" horiz-adv-x="1744" d="M61 1413v21h703v-21h-33q-63 0 -94 -49q-12 -23 -14 -47v-785q0 -213 107.5 -334.5t285.5 -121.5h3h3q170 0 279.5 113.5t109.5 316.5v784q0 254 148 436q70 84 163 124t183 40q29 0 57 -4v-20q-184 -23 -278.5 -174.5t-94.5 -401.5v-764q-4 -270 -173 -412.5 t-500.5 -142.5t-522 147.5t-190.5 393.5v12v789q0 43 -32 71.5t-77 28.5h-33zM596 1698.5q0 62.5 45 106.5t107.5 44t106.5 -44t44 -106.5t-44 -106.5t-106.5 -44t-107.5 44t-45 106.5zM1135 1698.5q0 62.5 44 106.5t106.5 44t106.5 -44t44 -106.5t-44 -106.5t-106.5 -44 t-106.5 44t-44 106.5z" />
<glyph unicode="&#xdd;" horiz-adv-x="1431" d="M-174 1534v20q60 5 115 5q299 0 530 -140q272 -166 385 -475q82 242 260 428q86 88 183.5 136t187.5 48q14 0 29 -2v-20q-94 -4 -198 -99.5t-183.5 -231.5t-138 -283.5t-72.5 -260.5v-509q0 -74 63 -111q31 -18 68 -19h24l2 -20h-735v20h27q53 0 91 38t40 92v509 q-45 215 -156 428q-61 117 -135 211.5t-176.5 161t-210.5 74.5zM698 1573q39 90 133.5 197.5t184.5 183.5q131 -55 174 -205q-102 -68 -235 -123t-242 -67z" />
<glyph unicode="&#xde;" horiz-adv-x="1447" d="M88 0v20h25q55 0 93 38t40 92v1136q-2 53 -40 90t-91 37h-27v21h733v-21h-24q-53 0 -92 -37t-39 -90v-143h186q340 0 479 -162q88 -102 88 -258q0 -94 -38 -182t-109 -148q-129 -104 -275 -104q-147 0 -278 94v20q74 12 111.5 40t60.5 51q51 55 68.5 128.5t17.5 104.5 q0 162 -69.5 237.5t-186.5 75.5h-55v-890q0 -76 65 -113q29 -16 66 -17h24v-20h-733z" />
<glyph unicode="&#xdf;" horiz-adv-x="2641" d="M92.5 201.5q-0.5 52.5 7.5 101.5q23 121 76 189h19q-2 -12 -2 -27q0 -152 119.5 -271.5t326.5 -119.5q139 0 214 58t75 133t-51.5 128t-165.5 107l-334 155q-141 63 -205 179q-51 90 -51 198q0 221 149 336q125 94 332 94q135 0 346 -20h160l-45 -334h-21 q0 113 -88 182.5t-224 69.5t-211 -47t-81 -125q-8 -96 123 -164q23 -12 60 -27l383 -178q238 -109 237.5 -356.5t-176.5 -369.5t-469 -122q-170 0 -299 38t-186 95q-18 45 -18.5 97.5zM1413.5 201.5q-0.5 52.5 7.5 101.5q23 121 76 189h19q-2 -12 -3 -27q0 -152 120 -271.5 t327 -119.5q139 0 214 58t75 133t-51.5 128t-165.5 107l-334 155q-141 63 -205 179q-51 90 -51 198q0 221 149 336q125 94 332 94q135 0 346 -20h160l-45 -334h-21q0 113 -88 182.5t-224 69.5t-212 -47q-80 -53 -80 -139q0 -57 44 -96.5t139 -80.5l382 -178 q238 -109 238 -356.5t-176 -369.5t-469 -122q-170 0 -299 38t-186 95q-18 45 -18.5 97.5z" />
<glyph unicode="&#xe0;" d="M-82 0v20h19q47 0 93 28t76 83l478 1047q109 229 116 305h19l649 -1350q66 -113 172 -113h16v-20h-776v20h19q45 0 67.5 28t22.5 51.5t-10 50.5l-80 190h-439l-81 -190q-10 -27 -10.5 -43.5t7 -36t31 -35t49.5 -15.5h19v-20h-457zM281 1755q43 150 174 205 q90 -76 184 -183.5t133 -197.5l-14 -14q-109 12 -242 67.5t-235 122.5zM406 442h350l-172 410z" />
<glyph unicode="&#xe1;" d="M-82 0v20h19q47 0 93 28t76 83l478 1047q109 229 116 305h19l649 -1350q66 -113 172 -113h16v-20h-776v20h19q45 0 67.5 28t22.5 51.5t-10 50.5l-80 190h-439l-81 -190q-10 -27 -10.5 -43.5t7 -36t31 -35t49.5 -15.5h19v-20h-457zM406 442h350l-172 410zM668 1573 q39 90 134 197.5t183 183.5q131 -55 174 -205q-102 -68 -235 -123t-242 -67z" />
<glyph unicode="&#xe2;" d="M-82 0v20h19q47 0 93 28t76 83l478 1047q109 229 116 305h19l649 -1350q66 -113 172 -113h16v-20h-776v20h19q45 0 67.5 28t22.5 51.5t-10 50.5l-80 190h-439l-81 -190q-10 -27 -10.5 -43.5t7 -36t31 -35t49.5 -15.5h19v-20h-457zM356 1548l346 361h25l365 -361l-15 -16 l-364 133l-342 -133zM406 442h350l-172 410z" />
<glyph unicode="&#xe3;" d="M-82 0v20h19q47 0 93 28t76 83l478 1047q109 229 116 305h19l649 -1350q66 -113 172 -113h16v-20h-776v20h19q45 0 67.5 28t22.5 51.5t-10 50.5l-80 190h-439l-81 -190q-12 -27 -12.5 -50.5t22 -51.5t67.5 -28h19v-20h-457zM352 1630q0 123 90 211q63 61 140 61.5 t188 -55t203 -55.5q31 0 81 29.5t62 60.5h27q12 -35 12 -75t-18 -78q-43 -102 -125 -140q-49 -25 -112.5 -24.5t-166.5 51.5q-100 51 -137 56t-66.5 5t-79 -32.5t-65.5 -73.5h-27q-6 29 -6 59zM406 442h350l-172 410z" />
<glyph unicode="&#xe4;" d="M-82 0v20h19q47 0 93 28t76 83l478 1047q109 229 116 305h19l649 -1350q66 -113 172 -113h16v-20h-776v20h19q45 0 67.5 28t22.5 51.5t-10 50.5l-80 190h-439l-81 -190q-10 -27 -10.5 -43.5t7 -36t31 -35t49.5 -15.5h19v-20h-457zM291 1698.5q0 62.5 44 106.5t106.5 44 t106.5 -44t44 -106.5t-44 -107.5t-106.5 -45t-106.5 45t-44 107.5zM406 442h350l-172 410zM827 1698.5q0 62.5 45.5 106.5t107.5 44t106 -44t44 -106.5t-44 -107.5t-106 -45t-107.5 45t-45.5 107.5z" />
<glyph unicode="&#xe5;" d="M-82 0v20h19q47 0 93 28t76 83l478 1047q109 229 116 305h19l649 -1350q66 -113 172 -113h16v-20h-776v20h19q45 0 67.5 28t22.5 51.5t-10 50.5l-80 190h-439l-81 -190q-10 -27 -10.5 -43.5t6 -36t31 -35t50.5 -15.5h19v-20h-457zM406 442h350l-172 410zM473 1746 q0 79 69.5 131t173 52t172 -51t68.5 -130t-68.5 -132t-173 -53t-173 52t-68.5 131zM610 1746q0 -52 30 -86t75 -34t75.5 34t30.5 86t-30.5 87t-75.5 35t-75 -35t-30 -87z" />
<glyph unicode="&#xe6;" horiz-adv-x="2076" d="M-68 0v20h19q88 0 176 125l801 1168q16 27 16 43q0 57 -59 57h-11v21h807q63 0 139 12t105 24v-421h-20v16q2 164 -117 229q-57 33 -139 35h-275v-577h209q94 4 154.5 66.5t60.5 156.5v10h21v-569h-21v10q0 94 -59.5 156.5t-151.5 66.5h-213v-545h232q150 0 263 98.5 t161 272.5h20l-78 -475h-1141l3 20h18q66 0 92 62q8 18 10 37v530h-321l-309 -499q-18 -29 -18.5 -52.5t24 -50.5t71.5 -27h19v-20h-488zM696 752h258v413z" />
<glyph unicode="&#xe7;" horiz-adv-x="1624" d="M72 719q0 231 106.5 399t308 256t494.5 88t514 -94l-20 -391h-19q-59 207 -172 295t-280 88q-227 0 -354.5 -168t-127.5 -468t118 -472t327 -178q242 0 350 114q102 106 160 410h16l49 -373q-151 -254 -575 -254h-25l-76 -88q29 10 49.5 10.5t41 0.5t62.5 -11.5t66.5 -42 t24.5 -55.5q0 -94 -66 -150q-86 -72 -204 -71q-57 0 -117 16l2 21q74 0 143.5 42t69.5 124q0 33 -35 57q-61 43 -166 10l-10 21l96 122q-354 35 -552.5 227.5t-198.5 514.5z" />
<glyph unicode="&#xe8;" horiz-adv-x="1363" d="M61 0v20h27q53 0 91 38t40 92v1134q-2 76 -65 113q-31 16 -66 16h-27v21h908q63 0 138 12t105 24v-421h-20v16q0 164 -119 229q-57 33 -137 35h-297v-571h223q98 2 159.5 64.5t61.5 160.5v8h21v-569h-21v10q0 96 -61 158.5t-158 64.5h-225v-551h252q150 0 264.5 98.5 t161.5 272.5h20l-77 -475h-1199zM258 1755q43 150 174 205q88 -76 183.5 -183.5t134.5 -197.5l-15 -14q-109 12 -242 67.5t-235 122.5z" />
<glyph unicode="&#xe9;" horiz-adv-x="1363" d="M61 0v20h27q53 0 91 38t40 92v1134q-2 53 -40 91t-91 38h-27v21h908q88 0 156.5 14t86.5 22v-421h-20v16q0 164 -119 229q-57 33 -137 35h-297v-571h223q98 2 159.5 64.5t61.5 160.5v8h21v-569h-21v10q0 96 -61 158.5t-158 64.5h-225v-551h252q150 0 264.5 98.5 t161.5 272.5h20l-77 -475h-1199zM645 1573q39 90 134 197.5t184 183.5q131 -55 174 -205q-102 -68 -235.5 -123t-242.5 -67z" />
<glyph unicode="&#xea;" horiz-adv-x="1363" d="M61 0v20h27q53 0 91 38t40 92v1134q-2 53 -40 91t-91 38h-27v21h908q63 0 138 12t105 24v-421h-20v16q0 164 -119 229q-57 33 -137 35h-297v-571h223q98 2 159.5 64.5t61.5 160.5v8h21v-569h-21v10q0 96 -61 158.5t-158 64.5h-225v-551h252q150 0 264.5 98.5t161.5 272.5 h20l-77 -475h-1199zM334 1548l346 361h25l364 -361l-14 -16l-365 133l-342 -133z" />
<glyph unicode="&#xeb;" horiz-adv-x="1363" d="M61 0v20h27q53 0 91 38t40 92v1134q-2 53 -40 91t-91 38h-27v21h908q63 0 138 12t105 24v-421h-20v16q0 164 -119 229q-57 33 -137 35h-297v-571h223q98 2 159.5 64.5t61.5 160.5v8h21v-569h-21v10q0 96 -61 158.5t-158 64.5h-225v-551h252q150 0 264.5 98.5t161.5 272.5 h20l-77 -475h-1199zM268 1698.5q0 62.5 44 106.5t106.5 44t106.5 -44t44 -106.5t-44 -107.5t-106.5 -45t-106.5 45t-44 107.5zM805 1698.5q0 62.5 44 106.5t106.5 44t106.5 -44t44 -106.5t-44 -107.5t-106.5 -45t-106.5 45t-44 107.5z" />
<glyph unicode="&#xec;" horiz-adv-x="856" d="M-10 1755q45 150 174 205q90 -76 184 -183.5t133 -197.5l-14 -14q-109 12 -242 67.5t-235 122.5zM61 0v20h27q53 0 91 38t40 92v1136q-2 53 -40 90t-91 37h-27v21h736v-21h-27q-53 0 -91 -37t-40 -90v-1136q2 -76 66 -113q31 -16 65 -17h27v-20h-736z" />
<glyph unicode="&#xed;" horiz-adv-x="856" d="M61 0v20h27q53 0 91 38t40 92v1136q-2 53 -40 90t-91 37h-27v21h736v-21h-27q-53 0 -91 -37t-40 -90v-1136q0 -53 39 -91.5t92 -38.5h27v-20h-736zM377 1573q59 139 256 323q33 31 61 58q131 -55 174 -205q-102 -68 -235 -123t-242 -67z" />
<glyph unicode="&#xee;" horiz-adv-x="856" d="M61 0v20h27q53 0 91 38t40 92v1136q-2 53 -40 90t-91 37h-27v21h736v-21h-27q-53 0 -91 -37t-40 -90v-1136q0 -53 39 -91.5t92 -38.5h27v-20h-736zM66 1548l346 361h24l365 -361l-15 -16l-364 133l-342 -133z" />
<glyph unicode="&#xef;" horiz-adv-x="856" d="M0 1698.5q0 62.5 44 106.5t106.5 44t106.5 -44t44 -106.5t-44 -107.5t-106.5 -45t-106.5 45t-44 107.5zM61 0v20h27q53 0 91 38t40 92v1136q-2 53 -40 90t-91 37h-27v21h736v-21h-27q-53 0 -91 -37t-40 -90v-1136q0 -53 39 -91.5t92 -38.5h27v-20h-736zM537 1698.5 q0 62.5 45 106.5t107.5 44t106.5 -44t44 -106.5t-44 -107.5t-106.5 -45t-107.5 45t-45 107.5z" />
<glyph unicode="&#xf0;" horiz-adv-x="1724" d="M61 0v20h27q53 0 91 38t40 92v516h-158v102h158v528q0 49 -40 83t-91 34h-25l-2 21h777q385 0 601 -189.5t216 -527.5t-216 -527.5t-601 -189.5h-777zM639 102h158q193 0 305 163t112 452q0 190 -51 329.5t-145 212t-221 72.5h-158v-563h221v-102h-221v-564z" />
<glyph unicode="&#xf1;" horiz-adv-x="1804" d="M41 0v20h39q51 0 88 36t37 89v1063q0 143 -21 228l-6 28h21l981 -872v696q-2 53 -39 89t-88 36h-39v21h749v-21h-37q-51 0 -87.5 -36t-39.5 -87v-1057q0 -152 21 -233l6 -29h-18l-981 873v-699q0 -53 36.5 -89t88.5 -36h39v-20h-750zM477 1630q0 123 92 211 q63 61 140 61.5t188 -55t203 -55.5q31 0 81 29.5t62 60.5h25q12 -35 12 -75t-16 -78q-45 -102 -125 -140q-49 -25 -113.5 -24.5t-165.5 51.5q-102 51 -138 56t-66.5 5t-80 -32.5t-65.5 -73.5h-25q-8 29 -8 59z" />
<glyph unicode="&#xf2;" horiz-adv-x="1843" d="M72 717q0 350 226.5 547.5t623.5 197.5q264 0 455.5 -88t294 -257t102.5 -400q0 -350 -226.5 -548t-625 -198t-624.5 198t-226 548zM485 1784q45 150 177 205q125 -109 206.5 -214.5t108.5 -166.5l-14 -15q-147 18 -330 107q-80 39 -148 84zM524 717q0 -303 105.5 -473 t293 -170t293 170t105.5 473t-105.5 473t-293 170t-293 -170t-105.5 -473z" />
<glyph unicode="&#xf3;" horiz-adv-x="1843" d="M72 717q0 350 226.5 547.5t623.5 197.5q264 0 455.5 -88t294 -257t102.5 -400q0 -350 -226.5 -548t-625 -198t-624.5 198t-226 548zM524 717q0 -303 105.5 -473t293 -170t293 170t105.5 473t-105.5 473t-293 170t-293 -170t-105.5 -473zM872 1602q39 90 134.5 197.5 t183.5 182.5q131 -55 174 -204q-102 -68 -235 -123.5t-242 -67.5z" />
<glyph unicode="&#xf4;" horiz-adv-x="1843" d="M72 717q0 350 226.5 547.5t623.5 197.5q264 0 455.5 -88t294 -257t102.5 -400q0 -350 -227.5 -548t-625 -198t-623.5 198t-226 548zM524 717q0 -303 105.5 -473t293 -170t293 170t105.5 473t-105.5 473t-293 170t-293 -170t-105.5 -473zM561 1577l346 360h25l366 -360 l-16 -16l-362 133l-345 -133z" />
<glyph unicode="&#xf5;" horiz-adv-x="1843" d="M72 717q0 350 226 547.5t623.5 197.5t625 -197.5t227.5 -547.5t-227.5 -548t-625 -198t-623.5 198t-226 548zM524 717q0 -303 105.5 -473t293 -170t293 170t105.5 473t-105.5 473t-293 170t-293 -170t-105.5 -473zM557 1659q0 123 90 211q63 61 140 61t188.5 -55 t204.5 -55q29 0 79 29.5t62 60.5h27q12 -35 12 -75t-19 -79q-43 -102 -124 -139q-49 -25 -105.5 -25t-112.5 23q-53 23 -110.5 51.5t-91 33.5t-63 5t-79 -33t-65.5 -74h-27q-6 29 -6 60z" />
<glyph unicode="&#xf6;" horiz-adv-x="1843" d="M72 717q0 350 226.5 547.5t623.5 197.5q264 0 455.5 -88t294 -257t102.5 -400q0 -350 -227.5 -548t-625 -198t-623.5 198t-226 548zM496 1727.5q0 62.5 44 106.5t106.5 44t106.5 -44t44 -106.5t-44 -107.5t-106.5 -45t-106.5 45t-44 107.5zM524 717q0 -303 105.5 -473 t293 -170t293 170t105.5 473t-105.5 473t-293 170t-293 -170t-105.5 -473zM1032 1727.5q0 62.5 45 106.5t107.5 44t106.5 -44t44 -106.5t-44 -107.5t-106.5 -45t-107.5 45t-45 107.5z" />
<glyph unicode="&#xf7;" horiz-adv-x="985" d="M82 567v133h823v-133h-823zM385 312q0 44 32 75t76 31t75.5 -31t31.5 -75t-31.5 -75.5t-75.5 -31.5t-76 31.5t-32 75.5zM385 959.5q0 44.5 32 75t76 30.5t75.5 -30.5t31.5 -75t-31.5 -76t-75.5 -31.5t-76 31.5t-32 76z" />
<glyph unicode="&#xf8;" horiz-adv-x="1843" d="M72 705.5q0 361.5 226 559t624 197.5q266 0 458 -90l99 115l90 -70l-88 -102q293 -197 293 -598q0 -350 -227.5 -548t-624.5 -198q-293 0 -498 111l-111 -129l-90 74l103 118q-254 199 -254 560.5zM524 717q0 -170 33 -301l662 770q-104 174 -294 174t-295.5 -170 t-105.5 -473zM602 291q107 -217 320 -217q188 0 293.5 170t105.5 473q0 207 -49 354z" />
<glyph unicode="&#xf9;" horiz-adv-x="1730" d="M61 1413v21h703v-21h-33q-45 0 -75.5 -27.5t-32.5 -70.5v-783q0 -215 98 -335.5t274 -120.5t275.5 113.5t99.5 316.5v809q-2 43 -32.5 70.5t-75.5 27.5h-33v21h461v-21h-33q-43 0 -75 -27.5t-34 -68.5v-791q0 -260 -160.5 -407.5t-451.5 -147.5q-369 0 -551 143.5 t-182 409.5v787q0 61 -53 90q-25 12 -56 12h-33zM553 1755q43 150 174 205q88 -76 183 -183.5t134 -197.5l-14 -14q-109 12 -242 67.5t-235 122.5z" />
<glyph unicode="&#xfa;" horiz-adv-x="1730" d="M61 1413v21h703v-21h-33q-45 0 -75.5 -27.5t-32.5 -70.5v-783q0 -215 98 -335.5t274 -120.5t275.5 113.5t99.5 316.5v809q-2 68 -65 90q-20 8 -43 8h-33v21h461v-21h-33q-43 0 -75 -27.5t-34 -68.5v-791q0 -260 -160.5 -407.5t-451.5 -147.5q-369 0 -551 143.5 t-182 409.5v787q0 61 -53 90q-25 12 -56 12h-33zM940 1573q39 90 134 197.5t183 183.5q131 -55 175 -205q-102 -68 -235.5 -123t-242.5 -67z" />
<glyph unicode="&#xfb;" horiz-adv-x="1730" d="M61 1413v21h703v-21h-33q-45 0 -75.5 -27.5t-32.5 -70.5v-783q0 -215 98 -335.5t274 -120.5t275.5 113.5t99.5 316.5v809q-2 43 -32.5 70.5t-75.5 27.5h-33v21h461v-21h-33q-43 0 -75 -27.5t-34 -68.5v-791q0 -260 -160.5 -407.5t-451.5 -147.5q-248 0 -414 68 q-319 129 -319 485v787q0 61 -53 90q-25 12 -56 12h-33zM629 1548l346 361h24l365 -361l-14 -16l-365 133l-342 -133z" />
<glyph unicode="&#xfc;" horiz-adv-x="1730" d="M61 1413v21h703v-21h-33q-45 0 -75.5 -27.5t-32.5 -70.5v-783q0 -215 98 -335.5t274 -120.5t275.5 113.5t99.5 316.5v809q-2 43 -32.5 70.5t-75.5 27.5h-33v21h461v-21h-33q-43 0 -75 -27.5t-34 -68.5v-791q0 -260 -160.5 -407.5t-451.5 -147.5q-369 0 -551 143.5 t-182 409.5v787q0 45 -32 73.5t-77 28.5h-33zM561 1698.5q0 62.5 45 106.5t107.5 44t106.5 -44t44 -106.5t-44 -107.5t-106.5 -45t-107.5 45t-45 107.5zM1100 1698.5q0 62.5 44 106.5t106.5 44t106.5 -44t44 -106.5t-44 -107.5t-106.5 -45t-106.5 45t-44 107.5z" />
<glyph unicode="&#xfd;" horiz-adv-x="1492" d="M-92 1413v21h790v-21h-24q-45 0 -70 -41q-12 -23 -12 -44t10 -42l281 -506l291 506q12 20 12 42t-15 42q-27 43 -69 43h-25v21h510v-21h-28q-61 0 -118 -35t-89 -86l-402 -633v-509q0 -53 38 -91.5t93 -38.5h25v-20h-733v20h26q53 0 91 37t40 90v512l-391 637 q-31 49 -87 83t-115 34h-29zM842 1573q39 90 134 197.5t183 183.5q131 -55 174 -205q-102 -68 -235 -123t-242 -67z" />
<glyph unicode="&#xfe;" horiz-adv-x="1447" d="M88 0v20h25q55 0 93 38t40 92v1136q-2 53 -40 90t-91 37h-27v21h733v-21h-24q-53 0 -92 -37t-39 -90v-143h186q340 0 479 -162q88 -102 88 -258q0 -94 -38 -182t-109 -148q-129 -104 -275 -104q-147 0 -278 94v20q74 12 111.5 40t60.5 51q51 55 68.5 128.5t17.5 104.5 q0 162 -69.5 237.5t-186.5 75.5h-55v-890q0 -76 65 -113q29 -16 66 -17h24v-20h-733z" />
<glyph unicode="&#xff;" horiz-adv-x="1492" d="M-92 1413v21h790v-21h-24q-45 0 -70 -41q-14 -23 -14 -44t12 -42l281 -506l291 506q12 20 12 41t-15 43q-27 43 -69 43h-25v21h510v-21h-28q-61 0 -118 -35t-89 -86l-402 -633v-509q0 -53 38 -91.5t93 -38.5h25v-20h-733v20h26q53 0 91 37t40 90v512l-391 637 q-31 49 -87 83t-115 34h-29zM463 1698.5q0 62.5 45 106.5t107.5 44t106.5 -44t44 -106.5t-44 -107.5t-106.5 -45t-107.5 45t-45 107.5zM1001 1698.5q0 62.5 44.5 106.5t106.5 44t106.5 -44t44.5 -106.5t-44.5 -107.5t-106.5 -45t-106.5 45t-44.5 107.5z" />
<glyph unicode="&#x152;" horiz-adv-x="2226" d="M-10 720q0 349 230.5 545.5t637.5 196.5q94 0 200.5 -14t170.5 -14h631q63 0 138 12t105 24v-421h-20v16q0 184 -148 244q-49 18 -108 20h-297v-571h223q98 2 159.5 64.5t61.5 160.5v8h21v-569h-21v10q0 131 -104 193q-51 29 -115 30h-225v-551h252q150 0 264.5 98.5 t161.5 272.5h20l-78 -475h-921q-80 0 -201 -14.5t-194 -14.5q-387 0 -615.5 200t-228.5 549zM424 719q0 -303 120 -474t318 -171q106 0 176 45t70 94v1008q0 47 -67.5 93t-176.5 46q-195 0 -317.5 -169t-122.5 -472z" />
<glyph unicode="&#x153;" horiz-adv-x="2336" d="M72 720q0 349 230 545.5t638 196.5q94 0 200.5 -14t170.5 -14h631q63 0 137.5 12t105.5 24v-421h-20v16q0 164 -119 229q-57 33 -137 35h-297v-571h223q98 2 159.5 64.5t61.5 160.5v8h21v-569h-21v10q0 131 -104 193q-51 29 -115 30h-225v-551h252q150 0 264.5 98.5 t161.5 272.5h20l-78 -475h-921q-80 0 -201 -14.5t-195 -14.5q-387 0 -615 200t-228 549zM506 719q0 -303 119.5 -474t318.5 -171q106 0 176 45t70 94v1008q0 47 -67.5 93t-176.5 46q-195 0 -317.5 -169t-122.5 -472z" />
<glyph unicode="&#x178;" horiz-adv-x="1431" d="M-174 1534v20q60 5 115 5q299 0 530 -140q272 -166 385 -475q82 242 260 428q86 88 183.5 136t187.5 48q14 0 29 -2v-20q-94 -4 -198 -99.5t-183.5 -231.5t-138 -283.5t-72.5 -260.5v-509q0 -74 63 -111q31 -18 68 -19h24l2 -20h-735v20h27q53 0 91 38t40 92v509 q-45 215 -156 428q-61 117 -135 211.5t-176.5 161t-210.5 74.5zM319 1698.5q0 62.5 44.5 106.5t108 44t107.5 -44t44 -106.5t-44 -107.5t-107.5 -45t-108 45t-44.5 107.5zM858 1698.5q0 62.5 44 106.5t106.5 44t106.5 -44t44 -106.5t-44 -107.5t-106.5 -45t-106.5 45 t-44 107.5z" />
<glyph unicode="&#x2c6;" horiz-adv-x="1228" d="M207 1370l346 359h25l366 -359l-16 -16l-363 131l-344 -131z" />
<glyph unicode="&#x2dc;" horiz-adv-x="1228" d="M188 1382q0 123 93 211q61 61 139 61.5t188.5 -55t202.5 -55.5q31 0 80 29.5t63 62.5h25q12 -37 12 -75.5t-18 -79.5q-43 -100 -125 -140q-49 -25 -112.5 -24.5t-164.5 51.5q-102 51 -138 56.5t-66.5 5.5t-79.5 -33t-66 -74h-24q-8 29 -9 59z" />
<glyph unicode="&#x2000;" horiz-adv-x="1000" />
<glyph unicode="&#x2001;" horiz-adv-x="2001" />
<glyph unicode="&#x2002;" horiz-adv-x="1000" />
<glyph unicode="&#x2003;" horiz-adv-x="2001" />
<glyph unicode="&#x2004;" horiz-adv-x="667" />
<glyph unicode="&#x2005;" horiz-adv-x="500" />
<glyph unicode="&#x2006;" horiz-adv-x="333" />
<glyph unicode="&#x2007;" horiz-adv-x="333" />
<glyph unicode="&#x2008;" horiz-adv-x="250" />
<glyph unicode="&#x2009;" horiz-adv-x="400" />
<glyph unicode="&#x200a;" horiz-adv-x="111" />
<glyph unicode="&#x2010;" horiz-adv-x="778" d="M61 598l21 82h614l21 -82l-21 -84h-614z" />
<glyph unicode="&#x2011;" horiz-adv-x="778" d="M61 598l21 82h614l21 -82l-21 -84h-614z" />
<glyph unicode="&#x2012;" horiz-adv-x="778" d="M61 598l21 82h614l21 -82l-21 -84h-614z" />
<glyph unicode="&#x2013;" horiz-adv-x="1024" d="M0 535v122h1024v-122h-1024z" />
<glyph unicode="&#x2014;" horiz-adv-x="1638" d="M0 535v122h1638v-122h-1638z" />
<glyph unicode="&#x2018;" horiz-adv-x="569" d="M71.5 1359q0.5 81 34.5 152q76 158 218 205q47 14 84.5 14.5t68.5 -4.5l8 -30q-32 -15 -57 -41.5t-35 -54t-10 -48.5q0 -72 57.5 -137t57.5 -149q0 -111 -74 -164q-49 -37 -96 -37q-164 0 -222 129q-35 84 -34.5 165z" />
<glyph unicode="&#x2019;" horiz-adv-x="548" d="M72 1546q0 106 69 156q49 37 92 37q156 0 211 -123q33 -80 33 -158t-33 -145q-72 -150 -204 -195q-45 -14 -82 -14t-66 4l-8 29q53 22 80 73q14 27 15 44.5t1 33.5q0 53 -54 115.5t-54 142.5z" />
<glyph unicode="&#x201a;" horiz-adv-x="569" d="M72 170q0 111 73 164q51 39 97 39q164 0 223 -131q33 -82 33 -163t-35 -155q-76 -156 -215 -203q-47 -16 -86 -16t-68 6l-10 29q70 31 92 96q10 29 10 49q0 70 -57 135.5t-57 149.5z" />
<glyph unicode="&#x201c;" horiz-adv-x="1062" d="M71.5 1359q0.5 81 34.5 152q76 158 218 205q47 14 86 14.5t67 -4.5l8 -30q-32 -15 -57 -41.5t-35 -54t-10 -48.5q0 -72 58.5 -137t58.5 -149q0 -111 -76 -164q-49 -37 -96 -37q-162 0 -222 129q-35 84 -34.5 165zM565 1359q0 81 35 152q78 158 217 205q47 14 86 14.5 t68 -4.5l8 -30q-33 -15 -57.5 -41.5t-34.5 -54t-10 -48.5q0 -72 58 -137t58 -149q0 -111 -75 -164q-49 -37 -97 -37q-162 0 -221 129q-35 84 -35 165z" />
<glyph unicode="&#x201d;" horiz-adv-x="1019" d="M72 1546q0 106 69 156q49 37 92 37q156 0 211 -123q33 -80 33 -158t-33 -145q-72 -150 -204 -195q-45 -14 -82 -14t-66 4l-8 29q53 22 80 73q14 27 15 44.5t1 33.5q0 53 -54 115.5t-54 142.5zM543 1546q0 106 69 156q49 37 93 37q156 0 210 -123q33 -80 33 -158t-33 -145 q-72 -150 -204 -195q-45 -14 -82 -14t-66 4l-8 29q53 22 80 73q14 27 15 44.5t1 33.5q0 53 -54 115.5t-54 142.5z" />
<glyph unicode="&#x201e;" horiz-adv-x="1060" d="M72 156q0 111 73 163q51 39 97 39q164 0 223 -131q33 -82 33 -162.5t-35 -154.5q-76 -156 -215 -203q-47 -16 -86 -16t-68 6l-10 29q70 31 92 96q10 27 10 49q0 70 -57 135.5t-57 149.5zM563 156q0 111 74 163q51 39 96 39q164 0 223 -131q33 -82 33 -162.5t-35 -154.5 q-76 -156 -215 -203q-47 -16 -86 -16t-67 6l-8 29q68 31 90 96q10 27 10 49q0 70 -57.5 135.5t-57.5 149.5z" />
<glyph unicode="&#x2022;" horiz-adv-x="796" d="M102 661.5q0 20.5 9 40.5q43 131 79.5 168t167.5 80q20 6 41 6t41 -6q131 -43 168 -79.5t80 -168.5q6 -20 6 -41.5t-8 -46.5q-43 -127 -80 -162.5t-166 -78.5q-20 -8 -40.5 -8t-66.5 15t-79 29.5t-62.5 43t-44 62.5t-30 80t-15.5 66.5zM260 660.5q0 -9.5 9.5 -36 t19.5 -44.5q18 -29 90 -54q10 -4 19.5 -4t45 12.5t53 29t29 52t11.5 46t-11.5 45t-29 52t-53 29t-45 11.5t-44.5 -11.5t-52 -29t-29.5 -53t-12.5 -45z" />
<glyph unicode="&#x2026;" horiz-adv-x="1515" d="M72 155.5q0 75.5 54 130t130 54.5t130 -54.5t54 -130t-54 -130t-130 -54.5t-130 54.5t-54 130zM573 155.5q0 75.5 54.5 130t130.5 54.5t130 -54.5t54 -130t-54 -130t-130 -54.5t-130.5 54.5t-54.5 130zM1075 155.5q0 75.5 54.5 130t130 54.5t130 -54.5t54.5 -130 t-54.5 -130t-130 -54.5t-130 54.5t-54.5 130z" />
<glyph unicode="&#x202f;" horiz-adv-x="400" />
<glyph unicode="&#x2039;" horiz-adv-x="702" d="M82 598q147 90 263 181t218 225l17 -11q-51 -92 -93.5 -170t-87.5 -225q51 -168 183 -403l-19 -15q-207 242 -481 418z" />
<glyph unicode="&#x203a;" horiz-adv-x="702" d="M123 195q51 92 93 171.5t89 231.5q-20 61 -46 131t-134 264l16 11q102 -133 218 -224.5t264 -181.5q-276 -176 -482 -418z" />
<glyph unicode="&#x205f;" horiz-adv-x="500" />
<glyph unicode="&#x20ac;" horiz-adv-x="1419" d="M-82 541l39 102h188q-6 72 0 143h-227l37 103h205q37 168 138 297t263 202.5t330 73.5t307 -30.5t186 -90.5l-108 -317h-21q2 10 2 55t-24.5 109.5t-69.5 101.5q-88 70 -207 70q-315 0 -364 -471h639l-37 -103h-610v-143h563l-33 -102h-522q51 -465 393 -465 q150 0 240 89t141 273h18v-338q-59 -61 -196.5 -94t-272.5 -33q-291 0 -493.5 156t-259.5 412h-244z" />
<glyph unicode="&#x2122;" horiz-adv-x="1048" d="M20 1317v129q27 -10 70 -10h270q43 0 70 10v-129h-6v4q0 39 -21.5 60.5t-60.5 21.5h-49v-336q0 -16 10 -26.5t27 -10.5h6v-6h-221v6h8q14 0 24.5 10.5t10.5 26.5v336h-49q-39 0 -60.5 -21.5t-21.5 -60.5v-4h-7zM420 1024v6h10q33 0 41 31l55 383h4l205 -258l183 258h6 l55 -381q8 -33 41 -33h10v-6h-221v6h10q8 0 15.5 7t7.5 16l-25 157l-94 -131q-27 -39 -25 -69h-6l-153 190l-19 -147q-2 -8 5 -15.5t18 -7.5h8v-6h-131z" />
<glyph unicode="&#xe000;" horiz-adv-x="1433" d="M0 0v1434h1434v-1434h-1434z" />
<glyph unicode="&#xfb01;" horiz-adv-x="2148" d="M61 0v20h27q53 0 91 38t40 92v1134q-2 53 -40 91t-91 38h-27v21h908q88 0 155.5 14t87.5 22v-421h-20v16q0 164 -119 229q-57 33 -137 35h-297v-571h223q98 2 159.5 64.5t61.5 158.5v10h21v-569h-21v10q0 96 -61 158.5t-158 64.5h-225v-505q0 -53 39 -91.5t92 -38.5h27 v-20h-736zM1354 0v20h26q74 0 113 64q18 31 18 66v1136q-2 53 -39.5 90t-91.5 37h-26v21h735v-21h-27q-53 0 -91 -37t-40 -90v-1136q2 -76 66 -113q31 -16 65 -17h27v-20h-735z" />
<glyph unicode="&#xfb02;" horiz-adv-x="2627" d="M61 0v20h27q53 0 91 38t40 92v1134q-2 53 -40 91t-91 38h-27v21h908q88 0 155.5 14t87.5 22v-421h-20v16q0 164 -119 229q-57 33 -137 35h-297v-571h223q98 2 159.5 64.5t61.5 158.5v10h21v-569h-21v10q0 96 -61 158.5t-158 64.5h-225v-505q0 -53 39 -91.5t92 -38.5h27 v-20h-736zM1354 0v20h26q74 0 113 64q18 31 18 66v1134q-2 53 -39.5 91t-91.5 38h-26v21h735v-21h-27q-53 0 -92 -38t-39 -91v-1180h252q150 0 264.5 98.5t161.5 272.5h21l-78 -475h-1198z" />
</font>
</defs>
</svg>
